<svg xmlns="http://www.w3.org/2000/svg" xmlns:xlink="http://www.w3.org/1999/xlink" width="208.534" height="254.582" viewBox="0 0 208.534 254.582">
  <defs>
    <filter id="Wishes" x="47.534" y="26.582" width="114" height="63" filterUnits="userSpaceOnUse">
      <feOffset dy="3" input="SourceAlpha"/>
      <feGaussianBlur stdDeviation="3" result="blur"/>
      <feFlood flood-opacity="0.102"/>
      <feComposite operator="in" in2="blur"/>
      <feComposite in="SourceGraphic"/>
    </filter>
    <filter id="Memes" x="36.534" y="107.582" width="135" height="70" filterUnits="userSpaceOnUse">
      <feOffset dy="3" input="SourceAlpha"/>
      <feGaussianBlur stdDeviation="3" result="blur-2"/>
      <feFlood flood-opacity="0.102"/>
      <feComposite operator="in" in2="blur-2"/>
      <feComposite in="SourceGraphic"/>
    </filter>
    <filter id="Special_Zone" x="23.534" y="200.582" width="161" height="54" filterUnits="userSpaceOnUse">
      <feOffset dy="3" input="SourceAlpha"/>
      <feGaussianBlur stdDeviation="3" result="blur-3"/>
      <feFlood flood-opacity="0.102"/>
      <feComposite operator="in" in2="blur-3"/>
      <feComposite in="SourceGraphic"/>
    </filter>
  </defs>
  <g id="Group_642" data-name="Group 642" transform="translate(-1377.466 -449.418)">
    <g id="Group_638" data-name="Group 638" transform="translate(24 -171)" style="mix-blend-mode: screen;isolation: isolate">
      <g id="Group_350" data-name="Group 350" transform="translate(1355.378 646.315)">
        <path id="Path_563" data-name="Path 563" d="M1550.736,692.7c-11.107.6-22.337,2.449-33.605,2.255-12.447-.213-25.107,3.968-37.7,1.185-10.872-2.4-22-6.5-33.228-5.87a20.515,20.515,0,0,0-9.033,2.246c-2.367,1.3-4,4.315-6.574,3.883-2-.337-3.857-2.8-5.924-3.313-2.321-.574-4.758.057-7.095-.262-9.389-1.28-18.539,1.379-27.836,1.036-4.4-.163-8.72.223-13.06.033-3.185-.139-10.141-2.116-13.059.035-3.871,2.854-1.615,12.942-1.634,18.512-.01,2.8-.83,9.452-.145,11.873.926,3.277,3.415,1.066,4.774,2.781-1.812,1.486-3.721,1.994-5.637,2.939-.507,2.1-2.066,8.932-1.255,11.112.923,2.486,5.061,1.3,6.461.974,5.99-1.4,12.641.341,18.939,1.089,17.4,2.066,35.269.605,52.772,2.478,7.553.808,15.173-.471,22.793-.19,9.518.352,18.741-3,28.219-3.486,10.137-.522,20.128-1.207,30.326-1.058,6.493.095,13.176,1.081,19.857.732,5.249-.274,10.693-.55,15.894.563,1.694.363,4.961,2.716,6.451.65,1.412-1.958,1.288-8.263,1.336-11.171.054-3.222.214-9.8-.993-11.8-.651-1.078-2.751,1.08-2.851-1.758s2.39-.955,2.9-1.932c.924-1.763.244-8-.815-9.743-1.283-2.118-5.086-1.709-6.729-1.91-1.212-.148-2.328.2-3.354-.771,2.266-5.009,11.009-.647,11.4-6.7C1562.829,689.636,1553.306,692.558,1550.736,692.7Z" transform="translate(-1359.441 -690.201)" fill="#c18156"/>
        <g id="Group_348" data-name="Group 348" transform="translate(0.057)">
          <path id="Path_564" data-name="Path 564" d="M1558.716,824.3c-6.505-.582-12.472-3.07-18.981-3.626-8.982-.766-17.861-1.492-26.892-1.463-9.571.031-19.23-.454-28.74.205-8.581.594-16.756,2.491-25.323,3.341a114.273,114.273,0,0,1-27.227-.45c-10.561-1.56-20.989-8-31.764-5.032-4.393,1.211-8.273,3.255-12.81,4.169a101.653,101.653,0,0,1-12.739,1.668c-3.3.237-6.718-.077-10,.1-1.393.075-3.125.359-4.716.372a7.186,7.186,0,0,0,.2,2.63c.924,2.486,5.062,1.3,6.461.974,5.99-1.4,12.642.341,18.939,1.089,17.4,2.065,35.269.605,52.771,2.478,7.553.809,15.173-.471,22.793-.189,9.518.352,18.741-3,28.219-3.486,10.137-.522,20.127-1.206,30.326-1.058,6.493.095,13.176,1.081,19.858.732,5.249-.274,10.692-.55,15.894.562,1.694.363,4.961,2.716,6.451.65a7.773,7.773,0,0,0,.977-3.222A31.138,31.138,0,0,1,1558.716,824.3Z" transform="translate(-1359.499 -775.27)" fill="#da9859"/>
          <path id="Path_565" data-name="Path 565" d="M1935.89,781.631c-3.3.164-7.262-.408-10.423.346,4.114.945,8.507,1.484,12.666,2.173a51.35,51.35,0,0,1,5.732,1.207,12.434,12.434,0,0,0-.683-3.514C1940.689,781.762,1938.116,781.52,1935.89,781.631Z" transform="translate(-1740.71 -751.747)" fill="#da9859"/>
          <path id="Path_566" data-name="Path 566" d="M1389.45,712.4c8.579,1.8,18.321,4.082,27.2,4.41a56.027,56.027,0,0,0,13.054-.736c2.479-.465,10.167-1.375,11.091-3.446a31.649,31.649,0,0,0-4.223.051c-10.555.507-21.233.412-31.191-3.405-4.274-1.638-8.221-4.107-12.422-6.069-1.776-.83-5.6-2.069-8.009-3.657-1.481.025-2.959.029-4.441-.036-3.185-.139-10.142-2.116-13.06.035-2.281,1.682-2.434,5.877-2.179,10.178C1371.662,707.938,1385.444,711.558,1389.45,712.4Z" transform="translate(-1363.329 -695.824)" fill="#da9859"/>
          <path id="Path_567" data-name="Path 567" d="M1552.065,736.2c-6.042-.48-12.44-1.611-18.5-1.19-9.11.631-18.109,1.615-27.235,2.425-17.211,1.528-35.729.326-51.532,7.585-6.835,3.139-9.688,9.911-17.172,12.47-8.088,2.766-16.327-.912-24.323-2.611a222.058,222.058,0,0,0-28.557-4.649c-4.991-.392-10.054-.123-15.078-.308a63.886,63.886,0,0,0-7.425-.164,17.846,17.846,0,0,0,.238,4.67c.926,3.277,3.415,1.066,4.774,2.781-1.812,1.486-3.721,1.994-5.637,2.939-.267,1.107-.827,3.531-1.178,5.895.7.074,1.373.159,1.912.179,3.656.135,6.988-.136,10.508-.342a86.161,86.161,0,0,0,27.323-5.747c9.519-3.75,19.327,4.2,28.9,4.656,10.388.491,21.029,1.593,31.237.721,5.577-.476,11.115-1.453,16.7-2.165,7.2-.918,14.576-.673,21.732-1.769,7.4-1.133,15.192-.055,22.643-.741,7.929-.73,15.113,1.638,22.9,3.154,5.074.988,10.273,1.172,15.38,2.025a28.752,28.752,0,0,1,3.644.668c.064-1.4.074-2.783.084-3.9-1.745-.308-3.674-.433-5.031-.772-2.956-.74-5.825-1.946-8.839-2.288-6.042-.684-12-.522-17.948-1.394-13.35-1.959-26.362,1.014-39.9.013-6.882-.509-13.25-3.233-19.886-4.349-1.755-.295-4.935.022-6.16-1.319-1.743-1.908.575-3.519,2.539-4.176,2.339-.782,5.461-.6,8.024-.786,4.316-.316,8.65-.872,13-1.233,11.455-.949,22.7-3.388,34.192-4.049a235.841,235.841,0,0,1,26.326.254,109.585,109.585,0,0,0,13.132-.6,15.055,15.055,0,0,0-1.2-5.477,2.572,2.572,0,0,0-.182-.26A49.838,49.838,0,0,1,1552.065,736.2Z" transform="translate(-1360.13 -720.323)" fill="#da9859"/>
          <path id="Path_568" data-name="Path 568" d="M1774.431,763.518c-7.59.3-15.139.242-22.68,1.294-5.916.826-11.8.545-17.672,1.107-9.534.912-19.07,1.637-28.424,2.908-2.674.363-5.678.048-8.2.653.871,2.555,9.251,3.449,11.842,4.044,4.7,1.08,9.216,2.551,14.163,2.73,10.078.363,19.51-1.959,29.829-1.578a181.9,181.9,0,0,1,24.972,2.372c3.979.706,7.78,1.8,11.883,2.347l.29.039c.017-1.142.026-2.481-.006-3.824-4.837-1.192-9.195-2.8-14.4-3.263-5.818-.516-11.7-1.591-17.6-1.868-10.291-.482-19.518,2.273-29.545,2.753-3.634.174-9.282.731-12.727-.458.108-1.754,10.259-2.062,12.477-2.475,4.733-.882,9.444-2.634,14.214-2.844,12.307-.543,24.755.821,36.935-.316,2.313-.216,4.515-.359,6.792-.4.21-2.091,2.41-.514,2.888-1.426a5.731,5.731,0,0,0,.42-2.2C1784.548,762.948,1779.644,763.313,1774.431,763.518Z" transform="translate(-1587.128 -739.284)" fill="#da9859"/>
          <path id="Path_569" data-name="Path 569" d="M1555.33,692.7c-11.108.6-22.337,2.449-33.606,2.255-12.447-.213-25.106,3.968-37.7,1.185-10.873-2.4-22-6.5-33.229-5.87a20.516,20.516,0,0,0-9.032,2.246c-2.367,1.3-4,4.315-6.574,3.883-2.005-.337-3.858-2.8-5.925-3.313-2.321-.574-4.758.057-7.095-.262-9.389-1.28-18.538,1.379-27.836,1.036-1.248-.046-2.489-.046-3.726-.03,2,1.05,3.932,2.25,5.739,3.181a70.559,70.559,0,0,0,13.012,4.922c11.935,3.574,24.522,1.885,36.8,3.25,1.729.192,5.862.664,3.953,2.594-.723.732-5.527,1.145-6.837,1.386-6.439,1.187-12.152,3.952-19.057,4.243-11.248.475-21.453-1.873-32.344-3.943-5.977-1.136-12.03-2.391-18.155-2.322-2.471.028-4.933.5-7.4.639.142,1.707.27,3.316.266,4.661,0,.916-.093,2.245-.189,3.7,7.334-1.289,20.96.276,23.417.8,9.551,2.028,19.034,3.727,28.609,5.755,4.532.959,9.3,2.284,13.882,2.692,5.347.476,8.107-.737,11.888-3.756,6.745-5.385,12.016-12.034,21.53-13.581a125.1,125.1,0,0,1,14.209-1.127c5.212-.243,10.2-1.4,15.353-1.881,9.742-.918,19.75-.169,29.48-1.348,10.011-1.213,20.366.447,30.451-.8l.987-.123c2.957-3.329,10.372-.1,10.735-5.658C1567.423,689.636,1557.9,692.558,1555.33,692.7Z" transform="translate(-1364.092 -690.201)" fill="#da9859"/>
        </g>
        <g id="Group_349" data-name="Group 349" transform="translate(0 2.371)" opacity="0.5">
          <path id="Path_570" data-name="Path 570" d="M1561.609,751.9c-.651-1.078-2.751,1.08-2.851-1.758s2.39-.955,2.9-1.932c.923-1.763.243-8-.816-9.743a2.771,2.771,0,0,0-.736-.8l0,.01c.54,1.758.1,5.653.509,7.554-4.488-2.794-4.281,9.813,0,8.768.12,3.753.48,7.334.326,11.074-.228,5.579-.851,4.609-3.627,5.181-4.077.84-7.853,2.056-12.269,1.406-23.8-3.5-50.485-10.894-73.8,1.128-9.366,4.829-21.018.4-30.726.394-5.892,0-11.974-1.459-17.812,0-4.882,1.22-8.767-.57-13.625-1.014-10.488-.958-20.841-1.712-31.224-3.548-5.2-.919-10.275.453-15.328-.011a6.449,6.449,0,0,0-3.073.57,10.045,10.045,0,0,0,.091,3.932c.924,2.486,5.062,1.3,6.461.974,5.99-1.4,12.641.341,18.939,1.089,17.4,2.065,35.269.605,52.772,2.478,7.553.808,15.173-.471,22.793-.19,9.518.352,18.741-3,28.219-3.486,10.137-.522,20.128-1.207,30.326-1.058,6.493.095,13.176,1.081,19.858.732,5.249-.274,10.692-.55,15.894.562,1.694.363,4.961,2.716,6.451.65,1.412-1.958,1.287-8.263,1.336-11.171C1562.656,760.472,1562.817,753.894,1561.609,751.9Z" transform="translate(-1359.323 -724.543)" fill="#7c5438"/>
          <path id="Path_571" data-name="Path 571" d="M1937.055,708.52a24.156,24.156,0,0,0,2.9.027c2.377-4.76,10.938-.557,11.329-6.544.166-2.545-.828-3.884-2.313-4.539a16.159,16.159,0,0,1-.325,2.518c-1.323,5.38-8.4,4.515-11.587,6.676A18.433,18.433,0,0,0,1937.055,708.52Z" transform="translate(-1748.444 -697.464)" fill="#7c5438"/>
        </g>
      </g>
      <g id="Group_353" data-name="Group 353" transform="translate(1353.466 705.664)">
        <path id="Path_572" data-name="Path 572" d="M1357.295,957.179c.215,5.393-1.066,14.067,2.684,15.351,3.9,1.335,8.379-.972,14.206,1.021a5.036,5.036,0,0,1-.3,1.948c-1.769.152-3.6-.046-5.373.146-.71.321-.465,2.2.189,2.5,4.431,1.967,10.988-1.07,16.08-1.28,7.493-.308,14.9-.78,22.388-.753,8.549.031,17.188.045,25.76.509,5.473.3,10.907,1.222,16.366,1.735,6.73.633,13.648-1.211,20.434-1.186,17.545.063,35.633.416,52.939-3.236a153.061,153.061,0,0,1,19.893-2.336c4.018-.3,9.624,2.375,13.4.071,6.309-3.847-3.818-6.165-3.185-7.534l.826-.83c6.754-.049,4.487-5.41,5.049-13.315.244-3.432,1.12-6.733,1.292-10.412.164-3.5-.073-6.906-.142-10.417-.093-4.773.228-6.112-2.964-7.1-2.256-.7-4.493-1.85-6.768-2.538-4.6-1.39-9.507-.769-14.116-2.2a4.642,4.642,0,0,1-2.065-1.186c6.686-.868,13.15-.764,20.041-.74,3.3.012,6.7,1.18,6.261-5.3-.321-4.784-.432-9.973-4.122-9.763a4.83,4.83,0,0,1-.254-1.951c2.961-.167,2.295-2.58,2.214-6.3-.074-3.451.087-6.96.131-10.416.038-3.029.719-7.48-1.247-9.087-1.785-1.459-5.739.357-7.557.743-9.283,1.974-19.049-.385-28.426.295-8.749.635-18.613,1.338-27.287,2.665-11.79,1.8-19.853.012-30.516,2.934-12.022,3.295-23.987,7.267-36.21,9.111a63.714,63.714,0,0,1-21.755-.441,94.991,94.991,0,0,0-24.375-1.879,39.394,39.394,0,0,1-16.448-2.005c-2.552-.862-3.777-1.648-5.6,1.531-1.684,2.93-1.595,5.92-1.753,9.577-.105,2.438-1.564,8.561-.685,10.84.773,2.005,4.523,1.583,6.226,2.4,2.815,1.348,5.858,2.278,8.633,3.976-1.779,2.729-4.72-1.7-6.506-.562-1.373.873-1.376,4.883-2.217,6.594a36.841,36.841,0,0,0,6.135,3.533,6.77,6.77,0,0,0-.036,4.543c-1.89,1-4.762,1.029-6.791,1.519-1.467.354-5.918-.479-7.029.985C1350.887,933.962,1357.07,951.56,1357.295,957.179Z" transform="translate(-1353.466 -872.005)" fill="#c68655"/>
        <g id="Group_351" data-name="Group 351" transform="translate(0.007 0)">
          <path id="Path_573" data-name="Path 573" d="M1903.772,939.643c-2.572.069-4.6.2-7,.48-4.5.518-10.32,1.9-13.486,3.795-3.205,1.924-4.849,4.229-9.84,5.109-1.833.323-6.465.766-2.916,1.634,1.757.429,5.343-.059,7.289-.008,5.567.144,11.209.492,16.927.648,3.215.088,9.115.08,12.618,1.067-.324-3.629-1.031-6.72-3.9-6.557a4.814,4.814,0,0,1-.254-1.952c2.393-.135,2.416-1.739,2.294-4.316C1904.781,939.6,1904.117,939.633,1903.772,939.643Z" transform="translate(-1700.869 -917.496)" fill="#da9859"/>
          <path id="Path_574" data-name="Path 574" d="M1381.85,1081.107c9.142-.012,17.8,1.557,26.695,2.514a204.651,204.651,0,0,0,21.948.766,158.779,158.779,0,0,0,20.2-1.561c5.514-.7,11.06-2.079,16.677-2.342,9.625-.451,18.013,2.649,27.322,3.127,6.8.349,13.7.1,20.489-.194,7.213-.31,14.842.355,21.875-.708,5.72-.864,11.641-.63,17.479-1.165,1.764-.162,4.126-.136,6.257-.219.228-1.691.537-3.379.767-5.124-4.066.491-9.163.523-12.9.7-5.623.268-11.3.008-16.925.149-6.787.17-13.263,1.368-20.041,1.752a62.2,62.2,0,0,1-9.686.273c-2.763-.276-5.338-.9-8.107-1.21-6.787-.767-12.851-1.728-17.346-4.683-1.85-1.217-3.543-3-6.911-2.811-4.312.237-7.965,3.439-11.044,4.786-12.19,5.331-29.069.36-42.6,1.694-7.779.767-15.547-.319-23.385-.148-6.1.133-12.24.018-18.315-.156-4.969-.142-9.94-.632-14.895-.746-.621-.014-1.8.026-3.132.054.34,1.836.738,3.689,1.13,5.46C1365.46,1080.9,1373.736,1081.118,1381.85,1081.107Z" transform="translate(-1355.364 -1005.605)" fill="#da9859"/>
          <path id="Path_575" data-name="Path 575" d="M1564.105,900.955c-1.412-.011-2.63-.06-2.946-.086a131.643,131.643,0,0,0-14.375-.327c-6.91.167-13.511.642-20.265,1.438-3.758.442-12.721-.394-15.518,1.111-1.72.925-1.252,2.647-1.734,3.843a12.048,12.048,0,0,1-2.86,3.871c-2.021,1.9-4.809,5.1-8.528,6-5.793,1.4-9.875-1.7-14.577-2.956-4.745-1.267-9.186-.008-13.706.879-6.588,1.292-13.643,1.939-20.337,3.115-7.485,1.315-15.671.255-23.163-.514a147.146,147.146,0,0,1-24.36-4.639c-5.37-1.5-8.428.658-13.779,1.119-5.738.494-11.546.927-17.51.959-1.679.009-4.582.181-7.574.248-.117,1.123-.374,2.657-.585,4.224,5.454-.445,10.927-.859,16.436-1.306,8.09-.657,15.847-1.423,23.6.355,11.075,2.541,23.126,3.093,34.979,3.557,10.24.4,19.928.388,29.654-1.687,3.037-.648,7.143-2.381,10.433-2.345,6.042.066,10.9,3.683,17.362,3.919,10.069.367,19.273-3.186,23.813-7.694,4.926-4.891,11.665-7.32,21.819-8.514,4.83-.568,9.871-.281,14.723-.63,2.944-.212,5.925-.2,8.92-.193C1564.058,903.446,1564.089,902.2,1564.105,900.955Z" transform="translate(-1359.415 -891.187)" fill="#da9859"/>
          <path id="Path_576" data-name="Path 576" d="M1561.413,1109.327c-6.544.345-13.146.172-19.678.658-13.63,1.016-27.874,2.134-41.638.7-9.565-.995-19.137-1.947-28.939-1.518-7.2.315-13.232,1.582-20.265,2.459-5.88.734-12.717.351-18.792.351-12.636,0-24.14-1.309-36.607-2.186-9.748-.686-19.411-1.375-29.231-.815-1.594.091-3.292.3-5,.445.224,1.005.435,1.965.619,2.858,4.454-.184,9.414-.412,13.956-.3a253.177,253.177,0,0,1,30.688,2.854,142.835,142.835,0,0,0,23.587,1.64,108.519,108.519,0,0,0,11.393-.741c1.869-.251,5.215-1.145,7.07-.515,6.847,2.325-6.848,4.165-8.9,4.527-7.069,1.248-13.945,2.953-21.166,3.981-4.559.649-9.179.531-13.815.75-6.337.3-12.746.743-19.106.9a124.4,124.4,0,0,1-23.081-1.617c0,.719.021,1.428.06,2.11,8.932.185,23.014,1.814,24.612,2.049a165.77,165.77,0,0,0,27.507,2.025,90.365,90.365,0,0,0,27.006-4.871c5.131-1.7,9.594-3.925,15.055-5.334a124.487,124.487,0,0,1,18.045-2.88c12.265-1.264,25.687-.939,38.077-.469,12.26.465,24.279,1.757,36.5,2.307,5.092.229,9.6-.589,14.453-.939.1-2.2-.148-5.031.083-8.294.011-.152.025-.3.038-.454C1562.767,1109.19,1561.781,1109.308,1561.413,1109.327Z" transform="translate(-1358.723 -1031.483)" fill="#da9859"/>
          <path id="Path_577" data-name="Path 577" d="M1722.266,1164.255c-8.626-1.191-17-2.684-25.833-3.168-16.611-.908-33.6.671-50.149,1.089a118.04,118.04,0,0,0-21.746,2.655c-4.377.965-8.845,1.6-13.354,2.489a84,84,0,0,0-12.134,3.088,17.424,17.424,0,0,0-1.608.745c5.413.307,10.788,1.216,16.188,1.724,6.729.633,13.648-1.211,20.434-1.186,17.546.063,35.633.416,52.939-3.236a153.07,153.07,0,0,1,19.893-2.336c4.018-.3,9.624,2.375,13.4.071A4.405,4.405,0,0,0,1722.266,1164.255Z" transform="translate(-1517.805 -1066.532)" fill="#da9859"/>
          <path id="Path_578" data-name="Path 578" d="M1358.051,1005.744c4.362.434,8.721.771,13.073,1.185,4.714.449,9.233,1.345,14.047,1.41,5.37.072,10.9-.347,16.26-.477,5.868-.142,11.664.189,17.458-.456,4.592-.511,8.9-1.69,13.677-1.565,6.673.175,11.753,1.4,18.53.311,7.994-1.289,12.813-3.979,19.089-6.682,4.049-1.744,7.822-3.17,13.106-2.677,5.924.552,10.489,3.026,15.665,4.6,9.181,2.787,17.642,1.552,27.262-.082,4.81-.816,9.752-1.683,14.65-2.341,3.63-.487,7.353-.2,11.036-.578a48.362,48.362,0,0,1,5.5-.193c-1.408-.569-2.818-1.18-4.242-1.611-4.6-1.39-9.507-.769-14.116-2.2a4.64,4.64,0,0,1-2.065-1.186c6.686-.868,13.15-.764,20.041-.74,2.987.011,6.058.97,6.286-3.668-.956-.112-1.867-.247-2.382-.278a124.941,124.941,0,0,0-12.836-.156c-3.937.181-7.787,1.039-11.663,1.37-4.064.347-8.155.5-12.255.807A144.8,144.8,0,0,1,1484.893,988c-6.186-1.184-12.925-2.238-19.3-1.054-5.376,1-10.218,2.925-15.845,3.872a283.831,283.831,0,0,1-39.562,3.346c-9.3.241-18.614-.191-28-.191-4.051,0-8.173.087-12.173-.122-.963-.05-2.388-.087-3.958-.158a7.882,7.882,0,0,1-.527,1.718,36.847,36.847,0,0,0,6.135,3.533,6.773,6.773,0,0,0-.037,4.543c-1.89,1-4.762,1.029-6.791,1.519C1363.459,1005.338,1359.46,1004.626,1358.051,1005.744Z" transform="translate(-1356.562 -949.075)" fill="#da9859"/>
          <path id="Path_579" data-name="Path 579" d="M1354.112,1041.539c4.835-.107,9.724,0,14.562,0,16.823,0,33.475,1.067,50.224.313,6.042-.272,12.755-.67,18.825-.32,4.64.267,7.41,2.02,11.777.535,6.12-2.08,9.7-5.814,16.721-7.284,4.98-1.042,6.84.33,10.33,2.255,6.412,3.537,13.769,7.063,23.568,6.847,9.226-.2,18.461-.284,27.705-.468a118.62,118.62,0,0,0,11.933-1.1,111.6,111.6,0,0,1,11.771-.469c2.912-.048,5.63-.439,8.425-.7,0-.069.009-.138.012-.207.164-3.5-.073-6.906-.142-10.417-.079-4.047.139-5.626-1.739-6.616-.758-.008-1.382-.021-1.693-.015-10.919.2-21.388,1.882-31.847,3.63-10.38,1.734-18.281,2.35-28.5.083a130.58,130.58,0,0,1-13.127-4.06c-4.909-1.634-8.074-1.263-12.846.538-7.595,2.866-12.335,7.553-22.435,8.084-5.865.308-11.288-.369-16.911-.814-5.192-.411-10.057,1.111-15.162,1.443-13.535.88-26.677,1.1-40.3.773-7.372-.174-13.513-1.251-20.631-2.061-.137-.016-.317-.031-.531-.047-.909,2.349-.691,6.073-.059,10.077Z" transform="translate(-1353.488 -973.376)" fill="#da9859"/>
          <path id="Path_580" data-name="Path 580" d="M1393.221,1155.2c7.494-.308,14.905-.78,22.388-.753,6.153.022,12.352.037,18.54.216a19.687,19.687,0,0,1,2.1-1.33c7.467-4.137,21.6-5.827,31.677-7.035,7.671-.919,15.523-1.664,23.327-2.181a316.609,316.609,0,0,1,40.836-.469c8.557.544,17.08,1,25.645,1.367,1.379.06,4.443.388,7.648.645-1.642-1.41-4.51-2.442-4.165-3.19l.827-.83c2.542-.019,3.806-.789,4.424-2.165-3.413.329-7.071.427-8.137.426-7.781,0-15.3-.694-22.969-1.094-8.379-.437-16.968-.22-25.359-.628-5.426-.264-11.373-.084-16.613-.812a61.739,61.739,0,0,0-22.337.968c-16.243,3.86-29.765,11.982-48.166,12.339-11,.214-21.8-.536-32.771-1.28-6.96-.472-13.665-1.658-20.588-2.277-1.107-.1-2.313-.142-3.54-.193.339,1.97,1.037,3.468,2.431,3.945,3.9,1.335,8.379-.972,14.206,1.021a5.034,5.034,0,0,1-.3,1.948c-1.769.152-3.6-.045-5.373.146-.71.321-.465,2.2.189,2.5C1381.572,1158.445,1388.129,1155.408,1393.221,1155.2Z" transform="translate(-1361.909 -1050.344)" fill="#da9859"/>
          <path id="Path_581" data-name="Path 581" d="M1375.639,1133.09c7.417-.011,14.794.337,22.223.16a203.288,203.288,0,0,0,20.572-2.033c2.372-.3,12.535-.874,13.141-1.691a36.672,36.672,0,0,0-6.959-.46c-2.76-.091-5.2-.373-7.881-.625-5.88-.554-11.536-1.177-17.414-1.786-8.062-.835-16.672-1.161-24.929-1.372-1.187-.03-5.627.082-10.058.125a19.219,19.219,0,0,1,.288,2.364c.053,1.32.016,2.837-.015,4.394C1368.878,1132.452,1373.439,1133.094,1375.639,1133.09Z" transform="translate(-1360.793 -1042.598)" fill="#da9859"/>
          <path id="Path_582" data-name="Path 582" d="M1383.56,893.5c4.267-.122,7.381-1.468,11.451-1.917a29.932,29.932,0,0,1,11.086.807c19.936,5.052,44.612,5.165,64.935.955,3.1-.641,7.806-1.883,11.08-2.046,3.982-.2,5.7,2.45,8.392,3.514,3.385,1.336,8.363,1.243,11.157-.639,3.462-2.331,2.121-5.8,3.778-8.508,2.437-3.979,9.285-3.871,15.824-3.988,6.694-.12,13.209-.844,19.755-1.45,5.569-.515,11.076.213,16.612.328,2.639.055,5.3.024,7.946.008.125-2.922.462-6.581-1.28-8.005-1.785-1.459-5.739.357-7.557.743-9.283,1.974-19.05-.385-28.426.295-8.749.635-17.285,1.186-26.059,1.155a205.606,205.606,0,0,0-32.281,2.463c-62.554,9.611-94.016,2.181-99.819.221-2.552-.862-2.208,4.9-4.034,8.077-1.469,2.557-1.589,5.16-1.7,8.211C1370.754,893.46,1377.1,893.689,1383.56,893.5Zm105.038-4.669a17.238,17.238,0,0,1-7.426-5.074c-2.3-3.224,2.2-3.7,7.063-3.04,4.4.6,9.124,2.648,9.914,5.273l-.583.959C1498.64,889.5,1491.319,889.638,1488.6,888.834Z" transform="translate(-1360.85 -872.005)" fill="#da9859"/>
          <path id="Path_583" data-name="Path 583" d="M1371.547,947.349c14.13.893,28.91.685,43.14.308,9.946-.264,19.994-.815,29.389-2.651,9.7-1.894,18.027-4.322,28.583-4.836a82.946,82.946,0,0,1,21.941,1.44c4.015.9,7.548,2.081,11.946,2.458,5.245.45,10.763.081,16.028-.034,5.227-.115,10.762.165,15.979-.113,4.309-.23,8.54-1.188,12.822-1.535a89.447,89.447,0,0,1,9.062-.191,34.242,34.242,0,0,1,5.043.606l-.005-.087c-.037-.552-.072-1.11-.109-1.665-2.757.51-7.177.063-9.48-.057-4.894-.255-9.639-1.122-14.578-1.279-3.909-.124-7.872.072-11.727.167-2.256.056-6.562.4-8.455-.444-5.131-2.276,7.552-4.517,9.92-5.154,6.821-1.836,10.975-5.355,18.361-6.831a92.6,92.6,0,0,1,13.935-1.907c-.011-.275-.021-.557-.028-.85-.031-1.408-.021-2.826,0-4.245-4.434.2-10.241-.034-11.8.043a86.515,86.515,0,0,0-18.15,3.162c-4.936,1.321-6.185,3.936-9.04,6.359-4.177,3.545-11.205,5.705-18.66,6.753a64.667,64.667,0,0,1-15.453-.186c-5.244-.66-10.982-3.154-16.044-1.765a65.849,65.849,0,0,1-16.248,2.069c-7.129.225-14.08,1.29-21.286,1.405a168.444,168.444,0,0,1-26.094-1.444,51.5,51.5,0,0,1-8.879-1.906c-2.158-.7-3.812-1.729-6.146-2.232a38.9,38.9,0,0,0-7.928-.351c-8.186-.011-17.619,1.856-26.164,1.953a10.627,10.627,0,0,0,.153,4.256c.774,2.005,4.523,1.583,6.226,2.4,2.815,1.348,5.858,2.278,8.633,3.976-1.779,2.729-4.72-1.7-6.506-.562-.645.41-.988,1.513-1.257,2.745C1369.751,947.21,1370.74,947.3,1371.547,947.349Z" transform="translate(-1358.75 -904.638)" fill="#da9859"/>
        </g>
        <g id="Group_352" data-name="Group 352" transform="translate(3.922 2.372)" opacity="0.5">
          <path id="Path_584" data-name="Path 584" d="M1971.249,1168.318c-.328-.031-.644-.072-.866-.105A6.105,6.105,0,0,0,1971.249,1168.318Z" transform="translate(-1772.916 -1073.889)" fill="#895b3d"/>
          <path id="Path_585" data-name="Path 585" d="M1925.625,905.214a4.843,4.843,0,0,1-.254-1.952c2.96-.167,2.294-2.58,2.214-6.3-.074-3.451.087-6.96.13-10.416.028-2.221.4-5.205-.178-7.273-2.447,4.577-2.34,13.148-2.679,16.869-.7,7.655.942,13,2.258,20.5-5.822.363-22.746-2.28-24.926,4.372q.97-.044,1.952-.082a155.407,155.407,0,0,1,19.343-.655c3.3.012,6.7,1.179,6.261-5.3C1929.426,910.193,1929.315,905,1925.625,905.214Z" transform="translate(-1726.984 -879.271)" fill="#895b3d"/>
          <path id="Path_586" data-name="Path 586" d="M1530.717,1171.487a153.055,153.055,0,0,1,19.893-2.336c4.018-.3,9.624,2.375,13.4.071,2.129-1.3,2.385-2.422,1.815-3.395a2.927,2.927,0,0,1-2.015.536,6.457,6.457,0,0,0,1.244.034c-7.568,2.628-10.356-.895-24.576.5-10.307,1.012-23.91,2.8-34.085,3.489-19.177,1.29-40.395,2.8-59.671-.366-9.309-1.528-16.416-1.286-26.086-1.146-9.706.14-20.35,2.091-29.821,2.272,2.845-6.97-9.111-4.19-13.6-4.249-3.984-.051-7.49.7-11.736-1.586.28,2.374.967,4.234,2.55,4.776,3.9,1.335,8.379-.972,14.206,1.021a5.034,5.034,0,0,1-.3,1.948c-1.769.152-3.6-.046-5.373.146-.71.321-.465,2.2.189,2.5,4.431,1.967,10.987-1.07,16.08-1.28,7.493-.308,14.9-.78,22.388-.753,8.55.031,17.188.045,25.76.509,5.473.3,10.907,1.222,16.366,1.735,6.73.633,13.648-1.211,20.434-1.186C1495.324,1174.786,1513.411,1175.139,1530.717,1171.487Z" transform="translate(-1365.48 -1071.935)" fill="#895b3d"/>
          <path id="Path_587" data-name="Path 587" d="M1967.826,1032.739c-.088-4.528.194-5.965-2.5-6.947-.822,1.609-1.137,16.734-1.413,19.633-.637,6.68.6,13.558.493,19.893-1.581-.163-3.551.488-5.1.221a3.946,3.946,0,0,0,1.473,2.271.287.287,0,0,1,.025-.1l.826-.83c6.754-.049,4.487-5.41,5.05-13.315.244-3.432,1.119-6.733,1.292-10.412C1968.132,1039.659,1967.894,1036.251,1967.826,1032.739Z" transform="translate(-1765.452 -977.961)" fill="#895b3d"/>
        </g>
      </g>
      <g id="Group_386" data-name="Group 386" transform="translate(1383.882 683.452)">
        <g id="Group_369" data-name="Group 369" transform="translate(0 0)">
          <path id="Path_588" data-name="Path 588" d="M1453.56,807.423a3.46,3.46,0,1,1-3.46-3.46A3.46,3.46,0,0,1,1453.56,807.423Z" transform="translate(-1446.64 -803.963)" fill="#7c5438"/>
          <path id="Path_589" data-name="Path 589" d="M1454.348,917.468a2.718,2.718,0,1,1-2.719-2.719A2.718,2.718,0,0,1,1454.348,917.468Z" transform="translate(-1448.17 -878.584)" fill="#7c5438"/>
          <g id="Group_368" data-name="Group 368" transform="translate(1.73 3.954)">
            <path id="Rectangle_37" data-name="Rectangle 37" d="M1.73,0h0A1.73,1.73,0,0,1,3.46,1.73V33.859a1.73,1.73,0,0,1-1.73,1.73h0A1.73,1.73,0,0,1,0,33.859V1.73A1.73,1.73,0,0,1,1.73,0Z" fill="#c6bc93"/>
            <g id="Group_354" data-name="Group 354" transform="translate(0.853 2.578)">
              <path id="Path_590" data-name="Path 590" d="M1455.008,826.276a5.744,5.744,0,0,0,2.006-1.841.309.309,0,0,0-.534-.312,5.086,5.086,0,0,1-1.784,1.619c-.336.212-.026.747.312.533Z" transform="translate(-1454.551 -823.974)" fill="#968f71"/>
            </g>
            <g id="Group_355" data-name="Group 355" transform="translate(0.861 5.221)">
              <path id="Path_591" data-name="Path 591" d="M1455.025,834.118a6.267,6.267,0,0,0,1.758-1.594c.219-.335-.317-.644-.533-.312a5.485,5.485,0,0,1-1.537,1.372c-.322.229-.014.765.312.534Z" transform="translate(-1454.577 -832.07)" fill="#968f71"/>
            </g>
            <g id="Group_356" data-name="Group 356" transform="translate(0.93 8.031)">
              <path id="Path_592" data-name="Path 592" d="M1455.25,842.635a5.539,5.539,0,0,0,1.676-1.511c.236-.321-.3-.629-.533-.312a4.8,4.8,0,0,1-1.454,1.29.309.309,0,0,0,.312.533Z" transform="translate(-1454.789 -840.678)" fill="#968f71"/>
            </g>
            <g id="Group_357" data-name="Group 357" transform="translate(0.852 10.404)">
              <path id="Path_593" data-name="Path 593" d="M1455.006,850.085a5.089,5.089,0,0,0,1.841-1.676.309.309,0,0,0-.533-.312,4.442,4.442,0,0,1-1.619,1.455c-.337.211-.027.746.312.533Z" transform="translate(-1454.549 -847.947)" fill="#968f71"/>
            </g>
            <g id="Group_358" data-name="Group 358" transform="translate(0.841 13.046)">
              <path id="Path_594" data-name="Path 594" d="M1454.985,858.091a4.54,4.54,0,0,0,1.758-1.594c.217-.336-.319-.646-.533-.312a3.922,3.922,0,0,1-1.537,1.372c-.354.182-.042.716.312.533Z" transform="translate(-1454.516 -856.042)" fill="#968f71"/>
            </g>
            <g id="Group_359" data-name="Group 359" transform="translate(0.939 15.775)">
              <path id="Path_595" data-name="Path 595" d="M1455.269,866.275a6.157,6.157,0,0,0,1.594-1.429c.237-.321-.3-.629-.533-.312a5.309,5.309,0,0,1-1.372,1.207c-.329.221-.02.756.312.534Z" transform="translate(-1454.816 -864.401)" fill="#968f71"/>
            </g>
            <g id="Group_360" data-name="Group 360" transform="translate(1.09 18.052)">
              <path id="Path_596" data-name="Path 596" d="M1455.807,873.477c.524-.52,1.08-1.007,1.565-1.565.26-.3-.175-.738-.437-.437-.486.558-1.041,1.045-1.565,1.565a.309.309,0,0,0,.437.436Z" transform="translate(-1455.279 -871.374)" fill="#968f71"/>
            </g>
            <g id="Group_361" data-name="Group 361" transform="translate(1.172 20.629)">
              <path id="Path_597" data-name="Path 597" d="M1456,881.151a4.233,4.233,0,0,0,1.429-1.429c.224-.331-.312-.639-.533-.312a3.576,3.576,0,0,1-1.207,1.207c-.352.187-.04.72.312.534Z" transform="translate(-1455.53 -879.27)" fill="#968f71"/>
            </g>
            <g id="Group_362" data-name="Group 362" transform="translate(1.249 23.074)">
              <path id="Path_598" data-name="Path 598" d="M1456.237,888.666a4.485,4.485,0,0,0,1.463-1.367c.252-.3-.182-.744-.437-.437a4.134,4.134,0,0,1-1.338,1.27c-.362.167-.047.7.312.534Z" transform="translate(-1455.765 -886.758)" fill="#968f71"/>
            </g>
            <g id="Group_363" data-name="Group 363" transform="translate(1.079 25.331)">
              <path id="Path_599" data-name="Path 599" d="M1455.784,895.663a8.706,8.706,0,0,0,1.449-1.545c.235-.323-.3-.631-.533-.312a8.075,8.075,0,0,1-1.352,1.42c-.305.257.134.692.437.437Z" transform="translate(-1455.244 -893.672)" fill="#968f71"/>
            </g>
            <g id="Group_364" data-name="Group 364" transform="translate(1.181 27.63)">
              <path id="Path_600" data-name="Path 600" d="M1455.776,902.629c.82.212,1.386-.911,1.749-1.46.221-.333-.315-.642-.533-.312-.169.255-.33.517-.519.758-.1.125-.342.467-.533.418a.309.309,0,0,0-.164.6Z" transform="translate(-1455.556 -900.716)" fill="#968f71"/>
            </g>
            <g id="Group_365" data-name="Group 365" transform="translate(1.338 30.582)">
              <path id="Path_601" data-name="Path 601" d="M1456.5,911.572a5.924,5.924,0,0,0,1.3-1.284c.278-.285-.158-.722-.437-.437-.384.393-.678.922-1.173,1.188-.352.188-.04.721.312.533Z" transform="translate(-1456.036 -909.758)" fill="#968f71"/>
            </g>
            <g id="Group_366" data-name="Group 366" transform="translate(1.423 33.22)">
              <path id="Path_602" data-name="Path 602" d="M1456.761,919.24a2.79,2.79,0,0,0,1.1-.935.309.309,0,0,0-.111-.423.316.316,0,0,0-.423.111,2.189,2.189,0,0,1-.878.713.309.309,0,0,0-.111.423.317.317,0,0,0,.423.111Z" transform="translate(-1456.299 -917.84)" fill="#968f71"/>
            </g>
            <g id="Group_367" data-name="Group 367" transform="translate(0.762 0.615)">
              <path id="Path_603" data-name="Path 603" d="M1454.8,820.036a13.8,13.8,0,0,0,1.366-1.628c.234-.324-.3-.632-.534-.312a12.7,12.7,0,0,1-1.27,1.5.309.309,0,0,0,.437.437Z" transform="translate(-1454.273 -817.961)" fill="#968f71"/>
            </g>
          </g>
        </g>
        <g id="Group_385" data-name="Group 385" transform="translate(143.476 0)">
          <path id="Path_604" data-name="Path 604" d="M1893.072,807.423a3.46,3.46,0,1,1-3.46-3.46A3.46,3.46,0,0,1,1893.072,807.423Z" transform="translate(-1886.152 -803.963)" fill="#7c5438"/>
          <path id="Path_605" data-name="Path 605" d="M1893.861,917.468a2.719,2.719,0,1,1-2.719-2.719A2.718,2.718,0,0,1,1893.861,917.468Z" transform="translate(-1887.682 -878.584)" fill="#7c5438"/>
          <g id="Group_384" data-name="Group 384" transform="translate(1.73 3.954)">
            <path id="Rectangle_38" data-name="Rectangle 38" d="M1.73,0h0A1.73,1.73,0,0,1,3.46,1.73V33.859a1.73,1.73,0,0,1-1.73,1.73h0A1.73,1.73,0,0,1,0,33.859V1.73A1.73,1.73,0,0,1,1.73,0Z" fill="#c6bc93"/>
            <g id="Group_370" data-name="Group 370" transform="translate(0.853 2.578)">
              <path id="Path_606" data-name="Path 606" d="M1894.521,826.276a5.745,5.745,0,0,0,2.005-1.841.309.309,0,0,0-.533-.312,5.088,5.088,0,0,1-1.784,1.619c-.336.212-.026.747.312.533Z" transform="translate(-1894.064 -823.974)" fill="#968f71"/>
            </g>
            <g id="Group_371" data-name="Group 371" transform="translate(0.861 5.221)">
              <path id="Path_607" data-name="Path 607" d="M1894.539,834.118a6.274,6.274,0,0,0,1.759-1.594c.218-.335-.317-.644-.534-.312a5.483,5.483,0,0,1-1.536,1.372c-.322.229-.014.765.312.534Z" transform="translate(-1894.091 -832.07)" fill="#968f71"/>
            </g>
            <g id="Group_372" data-name="Group 372" transform="translate(0.93 8.031)">
              <path id="Path_608" data-name="Path 608" d="M1894.763,842.635a5.54,5.54,0,0,0,1.676-1.511c.236-.321-.3-.629-.534-.312a4.8,4.8,0,0,1-1.454,1.29.309.309,0,0,0,.312.533Z" transform="translate(-1894.302 -840.678)" fill="#968f71"/>
            </g>
            <g id="Group_373" data-name="Group 373" transform="translate(0.852 10.404)">
              <path id="Path_609" data-name="Path 609" d="M1894.52,850.085a5.088,5.088,0,0,0,1.841-1.676.309.309,0,0,0-.533-.312,4.441,4.441,0,0,1-1.619,1.455c-.337.211-.027.746.312.533Z" transform="translate(-1894.063 -847.947)" fill="#968f71"/>
            </g>
            <g id="Group_374" data-name="Group 374" transform="translate(0.842 13.046)">
              <path id="Path_610" data-name="Path 610" d="M1894.5,858.091a4.54,4.54,0,0,0,1.759-1.594c.216-.336-.319-.646-.534-.312a3.924,3.924,0,0,1-1.536,1.372c-.354.182-.042.716.312.533Z" transform="translate(-1894.03 -856.042)" fill="#968f71"/>
            </g>
            <g id="Group_375" data-name="Group 375" transform="translate(0.939 15.775)">
              <path id="Path_611" data-name="Path 611" d="M1894.781,866.275a6.162,6.162,0,0,0,1.594-1.429c.236-.321-.3-.629-.534-.312a5.307,5.307,0,0,1-1.372,1.207c-.33.221-.021.756.312.534Z" transform="translate(-1894.329 -864.401)" fill="#968f71"/>
            </g>
            <g id="Group_376" data-name="Group 376" transform="translate(1.09 18.052)">
              <path id="Path_612" data-name="Path 612" d="M1895.32,873.477c.525-.52,1.08-1.007,1.565-1.565.26-.3-.175-.738-.437-.437-.485.558-1.041,1.045-1.565,1.565a.309.309,0,0,0,.437.436Z" transform="translate(-1894.792 -871.374)" fill="#968f71"/>
            </g>
            <g id="Group_377" data-name="Group 377" transform="translate(1.172 20.629)">
              <path id="Path_613" data-name="Path 613" d="M1895.51,881.151a4.236,4.236,0,0,0,1.429-1.429c.224-.331-.311-.639-.534-.312a3.578,3.578,0,0,1-1.207,1.207c-.352.187-.04.72.312.534Z" transform="translate(-1895.043 -879.27)" fill="#968f71"/>
            </g>
            <g id="Group_378" data-name="Group 378" transform="translate(1.249 23.074)">
              <path id="Path_614" data-name="Path 614" d="M1895.75,888.666a4.488,4.488,0,0,0,1.463-1.367c.252-.3-.183-.744-.437-.437a4.139,4.139,0,0,1-1.338,1.27c-.362.167-.048.7.312.534Z" transform="translate(-1895.278 -886.758)" fill="#968f71"/>
            </g>
            <g id="Group_379" data-name="Group 379" transform="translate(1.079 25.331)">
              <path id="Path_615" data-name="Path 615" d="M1895.3,895.663a8.7,8.7,0,0,0,1.449-1.545c.234-.323-.3-.631-.534-.312a8.107,8.107,0,0,1-1.352,1.42c-.305.257.134.692.437.437Z" transform="translate(-1894.757 -893.672)" fill="#968f71"/>
            </g>
            <g id="Group_380" data-name="Group 380" transform="translate(1.181 27.63)">
              <path id="Path_616" data-name="Path 616" d="M1895.29,902.629c.82.212,1.386-.911,1.75-1.46.22-.333-.315-.642-.533-.312-.169.255-.33.517-.519.758-.1.125-.342.467-.533.418a.309.309,0,0,0-.164.6Z" transform="translate(-1895.07 -900.716)" fill="#968f71"/>
            </g>
            <g id="Group_381" data-name="Group 381" transform="translate(1.337 30.582)">
              <path id="Path_617" data-name="Path 617" d="M1896.015,911.572a5.924,5.924,0,0,0,1.3-1.284c.279-.285-.158-.722-.437-.437-.384.393-.677.922-1.173,1.188-.352.188-.039.721.312.533Z" transform="translate(-1895.549 -909.758)" fill="#968f71"/>
            </g>
            <g id="Group_382" data-name="Group 382" transform="translate(1.423 33.22)">
              <path id="Path_618" data-name="Path 618" d="M1896.275,919.24a2.8,2.8,0,0,0,1.1-.935.31.31,0,0,0-.111-.423.316.316,0,0,0-.423.111,2.189,2.189,0,0,1-.878.713.309.309,0,0,0-.111.423.317.317,0,0,0,.422.111Z" transform="translate(-1895.812 -917.84)" fill="#968f71"/>
            </g>
            <g id="Group_383" data-name="Group 383" transform="translate(0.762 0.615)">
              <path id="Path_619" data-name="Path 619" d="M1894.314,820.036a13.739,13.739,0,0,0,1.366-1.628c.234-.324-.3-.632-.534-.312a12.705,12.705,0,0,1-1.27,1.5.309.309,0,0,0,.437.437Z" transform="translate(-1893.787 -817.961)" fill="#968f71"/>
            </g>
          </g>
        </g>
      </g>
      <path id="Path_620" data-name="Path 620" d="M1506.469,912.785c-8.763-2.378-17.5,4.078-25.721,6.089-11.179,2.735-23.013-2.118-34.214-2.226-12.7-.122-24.653-1.04-37.2,1.381-8.308,1.6-11.522,10.108-11.341,18.3.132,5.964,1.961,6.3-2.185,11.711-3.131,4.084-4.694,4.841-9.715,5.988-9.724,2.221-13.319,6.757-11.889,16.491,1.546,10.534,3.851,11.255,14.178,11.255l9.154-1.405c4.156,1.391,14.644-2,18.332-5.609,6.529-6.394,3.416-15.244,10.827-21.539,14.077-11.958,31.4-10.732,48.317-12.779,11.431-1.383,22.826-1.1,32.729-7.758C1515.753,927.3,1518.185,915.965,1506.469,912.785Z" transform="translate(-13.765 -193.459)" fill="#ffdc78" opacity="0.2"/>
      <path id="Path_621" data-name="Path 621" d="M1550.235,720.033c-1.267-2.561-9.49-1.733-11.62-1.754-6.035-.058-11.956.289-17.973-.015-14.841-.75-29.582,1.667-44.386-.572-6.3-.953-12.63-.887-18.992-1.159-6.278-.269-12.487-1.311-18.778-1.548-13.926-.525-27.6-3.648-41.374-4.336-.778-.039-1.568,0-2.347,0l-2.641,2.934c-3.613,4.875-1.831,16.962.523,22.235,2.643,5.923,2.5,11.046,10.408,11.508,4.448.26,6.948.372,8.664-4.107,1.52-3.968,0-8.355,1.3-12.1,3.35-9.688,20.481-7.192,27.736-6.016,7.722,1.252,15.677.906,23.5,1.1,7.27.18,14.514,1.124,21.778,1.467,13.272.627,26.6,1.181,39.906,1.775,5.765.257,12.252-.118,17.6-2.428C1545.387,726.218,1551.815,723.225,1550.235,720.033Z" transform="translate(-24.655 -57.648)" fill="#ffdc78" opacity="0.2"/>
      <g id="Group_389" data-name="Group 389" transform="translate(1358.626 817.469)">
        <path id="Path_622" data-name="Path 622" d="M1560.687,1215.178c-11.108.6-22.337,2.449-33.606,2.255-12.447-.214-25.107,3.968-37.7,1.185-10.873-2.4-46.265.691-48.835.259-2.005-.337-31.558-2.2-40.855-2.54-4.4-.163-8.72.223-13.061.034-3.184-.139-10.141-2.116-13.059.035-3.871,2.854-1.614,12.942-1.634,18.512-.01,2.8-.83,9.452-.145,11.874.926,3.277,3.415,1.066,4.774,2.781-1.812,1.486-3.721,1.994-5.637,2.939-.507,2.1-2.066,8.932-1.256,11.112.924,2.486,5.062,1.3,6.461.974,5.99-1.395,12.641.341,18.939,1.089,17.4,2.065,35.269.6,52.772,2.478,7.553.808,15.173-.471,22.793-.19,9.518.352,18.741-3,28.219-3.486,10.137-.522,20.128-1.206,30.326-1.058,6.493.094,13.176,1.08,19.858.732,5.249-.274,10.692-.551,15.894.562,1.694.363,4.961,2.716,6.451.65,1.412-1.958,1.288-8.263,1.337-11.171.054-3.222.214-9.8-.993-11.8-.651-1.078-2.751,1.08-2.851-1.758s2.39-.955,2.9-1.932c.924-1.764.243-8-.815-9.743-1.283-2.118-5.086-1.709-6.729-1.91-1.212-.148-2.327.2-3.354-.771,2.266-5.009,11.009-.647,11.405-6.7C1572.78,1212.117,1563.256,1215.04,1560.687,1215.178Z" transform="translate(-1369.391 -1214.501)" fill="#c18156"/>
        <g id="Group_387" data-name="Group 387" transform="translate(0.057 0)">
          <path id="Path_623" data-name="Path 623" d="M1568.666,1343.027c-6.505-.582-12.472-3.07-18.981-3.625-8.982-.766-17.86-1.492-26.892-1.463-9.571.031-19.23-.453-28.74.2-8.581.594-16.756,2.491-25.323,3.341a114.294,114.294,0,0,1-27.227-.451c-10.561-1.56-20.988-8-31.764-5.032-4.393,1.211-8.273,3.255-12.81,4.169a101.713,101.713,0,0,1-12.739,1.668c-3.3.237-6.718-.078-10,.1-1.393.075-3.125.359-4.716.372a7.178,7.178,0,0,0,.2,2.63c.924,2.486,5.062,1.3,6.461.974,5.99-1.395,12.642.342,18.939,1.089,17.4,2.065,35.269.6,52.771,2.478,7.553.808,15.173-.471,22.793-.19,9.518.352,18.742-3,28.219-3.486,10.137-.522,20.128-1.206,30.326-1.058,6.493.094,13.176,1.08,19.858.732,5.249-.274,10.692-.551,15.894.562,1.694.363,4.961,2.716,6.451.65a7.777,7.777,0,0,0,.978-3.222A31.143,31.143,0,0,1,1568.666,1343.027Z" transform="translate(-1369.449 -1295.818)" fill="#da9859"/>
          <path id="Path_624" data-name="Path 624" d="M1945.84,1300.362c-3.3.164-7.262-.408-10.423.346,4.114.945,8.508,1.484,12.666,2.173a51.278,51.278,0,0,1,5.732,1.208,12.469,12.469,0,0,0-.683-3.515C1950.639,1300.492,1948.066,1300.251,1945.84,1300.362Z" transform="translate(-1750.66 -1272.296)" fill="#da9859"/>
          <path id="Path_625" data-name="Path 625" d="M1399.4,1231.131c8.58,1.8,18.321,4.082,27.2,4.41a56.049,56.049,0,0,0,13.054-.736c2.479-.465,10.166-1.375,11.091-3.447a31.587,31.587,0,0,0-4.223.051c-10.555.507-21.232.412-31.191-3.406-4.274-1.639-8.22-4.108-12.422-6.07-1.776-.829-5.6-2.069-8.009-3.657-1.48.024-2.96.029-4.441-.036-3.185-.14-10.141-2.116-13.06.035-2.281,1.682-2.434,5.877-2.179,10.178C1381.612,1226.668,1395.394,1230.289,1399.4,1231.131Z" transform="translate(-1373.279 -1216.372)" fill="#da9859"/>
          <path id="Path_626" data-name="Path 626" d="M1562.016,1254.934c-6.042-.48-12.44-1.61-18.5-1.19-9.11.631-18.11,1.615-27.235,2.425-17.211,1.528-35.728.326-51.532,7.585-6.835,3.139-9.688,9.911-17.172,12.47-8.088,2.766-16.327-.912-24.323-2.611a221.989,221.989,0,0,0-28.557-4.649c-4.991-.393-10.054-.123-15.077-.308a63.926,63.926,0,0,0-7.425-.164,17.845,17.845,0,0,0,.238,4.67c.926,3.276,3.415,1.066,4.774,2.781-1.812,1.486-3.721,1.994-5.637,2.939-.267,1.106-.827,3.531-1.177,5.894.7.074,1.373.159,1.911.179,3.656.135,6.988-.136,10.508-.342a86.156,86.156,0,0,0,27.322-5.747c9.52-3.75,19.328,4.2,28.905,4.656,10.387.491,21.029,1.593,31.237.721,5.577-.476,11.115-1.454,16.7-2.165,7.205-.918,14.576-.672,21.732-1.768,7.4-1.133,15.192-.056,22.643-.741,7.928-.73,15.113,1.638,22.9,3.154,5.074.988,10.274,1.172,15.38,2.025a28.816,28.816,0,0,1,3.645.668c.064-1.4.073-2.783.084-3.9-1.745-.308-3.674-.432-5.031-.772-2.955-.74-5.825-1.946-8.839-2.287-6.042-.684-12-.522-17.948-1.394-13.35-1.959-26.362,1.014-39.9.013-6.881-.509-13.25-3.233-19.887-4.348-1.755-.3-4.936.021-6.16-1.318-1.744-1.908.575-3.519,2.539-4.176,2.339-.782,5.461-.6,8.024-.786,4.316-.317,8.65-.872,13-1.233,11.455-.949,22.7-3.388,34.192-4.049a236,236,0,0,1,26.326.254,109.578,109.578,0,0,0,13.131-.6,15.049,15.049,0,0,0-1.2-5.477,2.62,2.62,0,0,0-.182-.26A49.833,49.833,0,0,1,1562.016,1254.934Z" transform="translate(-1370.081 -1240.871)" fill="#da9859"/>
          <path id="Path_627" data-name="Path 627" d="M1784.381,1282.248c-7.59.3-15.139.242-22.68,1.294-5.917.825-11.8.545-17.672,1.107-9.534.912-19.07,1.636-28.424,2.908-2.674.363-5.677.047-8.2.652.871,2.555,9.251,3.448,11.842,4.044,4.7,1.08,9.216,2.552,14.163,2.73,10.078.363,19.509-1.959,29.829-1.578a181.992,181.992,0,0,1,24.971,2.372c3.979.706,7.78,1.8,11.883,2.347l.29.039c.016-1.142.026-2.481-.007-3.824-4.837-1.192-9.195-2.8-14.4-3.262-5.818-.517-11.7-1.592-17.6-1.868-10.291-.482-19.518,2.273-29.545,2.753-3.634.174-9.282.73-12.727-.458.108-1.755,10.26-2.063,12.477-2.475,4.732-.882,9.443-2.634,14.214-2.845,12.307-.543,24.755.821,36.935-.316,2.313-.216,4.515-.359,6.792-.4.211-2.091,2.411-.514,2.888-1.426a5.738,5.738,0,0,0,.419-2.2C1794.5,1281.678,1789.595,1282.044,1784.381,1282.248Z" transform="translate(-1597.078 -1259.833)" fill="#da9859"/>
          <path id="Path_628" data-name="Path 628" d="M1565.281,1215.178c-11.108.6-22.337,2.449-33.606,2.255-12.447-.214-83.961,1.876-86.531,1.444-2-.337-31.558-2.2-40.855-2.54-1.249-.046-2.489-.046-3.727-.03,2,1.05,3.932,2.25,5.74,3.181a70.518,70.518,0,0,0,13.012,4.922c11.935,3.574,24.522,1.885,36.8,3.249,1.728.192,5.861.665,3.953,2.595-.723.731-5.527,1.145-6.837,1.386-6.439,1.188-12.153,3.952-19.057,4.243-11.249.475-21.453-1.872-32.344-3.943-5.977-1.136-12.03-2.391-18.155-2.322-2.471.028-4.933.5-7.4.639.142,1.706.27,3.316.266,4.661,0,.916-.094,2.245-.189,3.7,7.334-1.289,20.96.276,23.417.8,9.552,2.028,19.034,3.727,28.609,5.755,4.532.959,9.3,2.284,13.882,2.692,5.347.476,8.107-.738,11.888-3.756,6.745-5.385,12.015-12.034,21.53-13.581a125.03,125.03,0,0,1,14.208-1.127c5.212-.243,10.2-1.4,15.353-1.881,9.742-.918,19.75-.169,29.479-1.348,10.011-1.213,20.367.447,30.451-.8l.987-.123c2.957-3.329,10.371-.1,10.735-5.658C1577.374,1212.117,1567.85,1215.04,1565.281,1215.178Z" transform="translate(-1374.043 -1214.501)" fill="#da9859"/>
        </g>
        <g id="Group_388" data-name="Group 388" transform="translate(0 0.553)" opacity="0.5">
          <path id="Path_629" data-name="Path 629" d="M1571.56,1270.625c-.652-1.078-2.751,1.08-2.852-1.758s2.39-.955,2.9-1.932c.923-1.763.243-8-.816-9.743a2.768,2.768,0,0,0-.736-.8l0,.01c.54,1.758.1,5.652.509,7.554-4.488-2.794-4.281,9.813,0,8.768.12,3.753.48,7.334.327,11.074-.229,5.579-.851,4.609-3.627,5.181-4.077.84-7.853,2.056-12.269,1.406-23.8-3.5-50.485-10.894-73.8,1.128-9.367,4.829-21.019.4-30.726.394-5.892,0-11.974-1.459-17.813,0-4.881,1.22-8.766-.57-13.625-1.014-10.488-.958-20.841-1.712-31.224-3.548-5.2-.919-10.275.453-15.328-.012a6.459,6.459,0,0,0-3.073.57,10.043,10.043,0,0,0,.091,3.932c.924,2.486,5.061,1.3,6.461.974,5.99-1.395,12.641.342,18.939,1.089,17.4,2.065,35.269.6,52.772,2.478,7.553.808,15.173-.471,22.793-.19,9.518.352,18.741-3,28.219-3.486,10.137-.522,20.128-1.206,30.326-1.058,6.493.094,13.176,1.08,19.858.732,5.249-.274,10.692-.551,15.894.562,1.694.363,4.961,2.716,6.452.65,1.412-1.958,1.287-8.263,1.336-11.171C1572.607,1279.2,1572.767,1272.624,1571.56,1270.625Z" transform="translate(-1369.274 -1243.273)" fill="#7c5438"/>
          <path id="Path_630" data-name="Path 630" d="M1947.005,1227.25a24.157,24.157,0,0,0,2.9.027c2.377-4.761,10.938-.557,11.33-6.544.166-2.545-.828-3.884-2.313-4.539a16.22,16.22,0,0,1-.325,2.518c-1.323,5.38-8.4,4.515-11.588,6.676A18.582,18.582,0,0,0,1947.005,1227.25Z" transform="translate(-1758.395 -1216.194)" fill="#7c5438"/>
        </g>
      </g>
      <path id="Path_631" data-name="Path 631" d="M1559.4,1241.287c-1.355-2.515-9.545-1.4-11.673-1.35-6.034.152-11.939.7-17.963.608-14.859-.234-29.507,2.692-44.379.968-6.334-.734-12.654-.448-19.021-.5-6.284-.051-12.525-.877-18.82-.9-13.937-.041-27.71-2.689-41.5-2.9-.779-.012-1.567.054-2.346.081l-2.537,3.024c-3.442,5-1.241,17.016,1.293,22.2,2.848,5.827,2.885,10.952,10.8,11.14,4.455.105,6.957.131,8.516-4.405,1.381-4.019-.287-8.35.878-12.14,3.011-9.8,20.219-7.9,27.511-6.975,7.761.983,15.7.363,23.52.285,7.271-.072,14.544.62,21.815.711,13.286.167,26.622.258,39.943.389,5.771.057,12.24-.543,17.51-3.037C1554.772,1247.637,1561.091,1244.423,1559.4,1241.287Z" transform="translate(-30.933 -412.334)" fill="#ffdc78" opacity="0.2"/>
      <g id="Group_422" data-name="Group 422" transform="translate(1386.439 792.23)">
        <g id="Group_405" data-name="Group 405" transform="translate(0 0)">
          <circle id="Ellipse_6" data-name="Ellipse 6" cx="3.46" cy="3.46" r="3.46" fill="#7c5438"/>
          <path id="Path_632" data-name="Path 632" d="M1462.181,1250.69a2.718,2.718,0,1,1-2.718-2.719A2.718,2.718,0,0,1,1462.181,1250.69Z" transform="translate(-1456.002 -1211.805)" fill="#7c5438"/>
          <g id="Group_404" data-name="Group 404" transform="translate(1.73 3.954)">
            <path id="Rectangle_39" data-name="Rectangle 39" d="M1.73,0h0A1.73,1.73,0,0,1,3.46,1.73V33.859a1.73,1.73,0,0,1-1.73,1.73h0A1.73,1.73,0,0,1,0,33.859V1.73A1.73,1.73,0,0,1,1.73,0Z" fill="#c6bc93"/>
            <g id="Group_390" data-name="Group 390" transform="translate(0.853 2.578)">
              <path id="Path_633" data-name="Path 633" d="M1462.841,1159.5a5.745,5.745,0,0,0,2.006-1.841.309.309,0,0,0-.534-.312,5.083,5.083,0,0,1-1.784,1.619c-.336.212-.026.747.312.534Z" transform="translate(-1462.384 -1157.195)" fill="#968f71"/>
            </g>
            <g id="Group_391" data-name="Group 391" transform="translate(0.861 5.221)">
              <path id="Path_634" data-name="Path 634" d="M1462.858,1167.339a6.264,6.264,0,0,0,1.758-1.593c.219-.335-.317-.644-.533-.312a5.5,5.5,0,0,1-1.537,1.372c-.322.228-.014.764.312.533Z" transform="translate(-1462.41 -1165.292)" fill="#968f71"/>
            </g>
            <g id="Group_392" data-name="Group 392" transform="translate(0.93 8.031)">
              <path id="Path_635" data-name="Path 635" d="M1463.084,1175.856a5.541,5.541,0,0,0,1.676-1.511c.236-.322-.3-.63-.533-.312a4.8,4.8,0,0,1-1.454,1.289.309.309,0,0,0,.312.533Z" transform="translate(-1462.623 -1173.899)" fill="#968f71"/>
            </g>
            <g id="Group_393" data-name="Group 393" transform="translate(0.852 10.404)">
              <path id="Path_636" data-name="Path 636" d="M1462.84,1183.306a5.092,5.092,0,0,0,1.841-1.676.309.309,0,0,0-.533-.312,4.442,4.442,0,0,1-1.619,1.454c-.337.211-.027.745.312.534Z" transform="translate(-1462.383 -1181.168)" fill="#968f71"/>
            </g>
            <g id="Group_394" data-name="Group 394" transform="translate(0.841 13.047)">
              <path id="Path_637" data-name="Path 637" d="M1462.818,1191.312a4.536,4.536,0,0,0,1.758-1.594c.217-.336-.319-.645-.533-.312a3.923,3.923,0,0,1-1.536,1.372c-.355.182-.042.716.312.533Z" transform="translate(-1462.35 -1189.263)" fill="#968f71"/>
            </g>
            <g id="Group_395" data-name="Group 395" transform="translate(0.939 15.776)">
              <path id="Path_638" data-name="Path 638" d="M1463.1,1199.5a6.148,6.148,0,0,0,1.594-1.429c.237-.321-.3-.628-.533-.312a5.31,5.31,0,0,1-1.372,1.207c-.329.22-.02.756.312.533Z" transform="translate(-1462.649 -1197.623)" fill="#968f71"/>
            </g>
            <g id="Group_396" data-name="Group 396" transform="translate(1.09 18.052)">
              <path id="Path_639" data-name="Path 639" d="M1463.641,1206.7c.524-.52,1.08-1.007,1.565-1.565.26-.3-.175-.738-.437-.437-.485.558-1.041,1.045-1.565,1.565a.309.309,0,0,0,.437.437Z" transform="translate(-1463.112 -1204.595)" fill="#968f71"/>
            </g>
            <g id="Group_397" data-name="Group 397" transform="translate(1.172 20.629)">
              <path id="Path_640" data-name="Path 640" d="M1463.83,1214.372a4.235,4.235,0,0,0,1.429-1.429c.224-.331-.311-.64-.533-.312a3.572,3.572,0,0,1-1.207,1.207c-.352.187-.04.72.312.534Z" transform="translate(-1463.364 -1212.491)" fill="#968f71"/>
            </g>
            <g id="Group_398" data-name="Group 398" transform="translate(1.249 23.074)">
              <path id="Path_641" data-name="Path 641" d="M1464.07,1221.886a4.477,4.477,0,0,0,1.463-1.366c.252-.3-.182-.744-.437-.437a4.138,4.138,0,0,1-1.338,1.27c-.362.166-.047.7.312.533Z" transform="translate(-1463.598 -1219.979)" fill="#968f71"/>
            </g>
            <g id="Group_399" data-name="Group 399" transform="translate(1.079 25.331)">
              <path id="Path_642" data-name="Path 642" d="M1463.617,1228.884a8.716,8.716,0,0,0,1.449-1.545c.235-.323-.3-.631-.533-.312a8.068,8.068,0,0,1-1.352,1.42c-.305.257.134.691.437.437Z" transform="translate(-1463.077 -1226.892)" fill="#968f71"/>
            </g>
            <g id="Group_400" data-name="Group 400" transform="translate(1.181 27.63)">
              <path id="Path_643" data-name="Path 643" d="M1463.609,1235.85c.82.211,1.386-.911,1.749-1.46.221-.333-.315-.642-.533-.312-.169.255-.33.517-.519.758-.1.124-.342.468-.533.419a.309.309,0,0,0-.164.6Z" transform="translate(-1463.389 -1233.937)" fill="#968f71"/>
            </g>
            <g id="Group_401" data-name="Group 401" transform="translate(1.337 30.582)">
              <path id="Path_644" data-name="Path 644" d="M1464.335,1244.793a5.91,5.91,0,0,0,1.3-1.284c.278-.285-.158-.722-.437-.437-.384.393-.677.923-1.173,1.187-.352.188-.039.721.312.533Z" transform="translate(-1463.87 -1242.979)" fill="#968f71"/>
            </g>
            <g id="Group_402" data-name="Group 402" transform="translate(1.423 33.22)">
              <path id="Path_645" data-name="Path 645" d="M1464.595,1252.461a2.788,2.788,0,0,0,1.1-.935.309.309,0,0,0-.111-.423.316.316,0,0,0-.423.111,2.182,2.182,0,0,1-.878.713.31.31,0,0,0-.111.423.317.317,0,0,0,.423.111Z" transform="translate(-1464.132 -1251.061)" fill="#968f71"/>
            </g>
            <g id="Group_403" data-name="Group 403" transform="translate(0.762 0.616)">
              <path id="Path_646" data-name="Path 646" d="M1462.634,1153.257a13.679,13.679,0,0,0,1.366-1.628c.234-.324-.3-.632-.534-.312a12.663,12.663,0,0,1-1.27,1.5.309.309,0,0,0,.437.437Z" transform="translate(-1462.107 -1151.183)" fill="#968f71"/>
            </g>
          </g>
        </g>
        <g id="Group_421" data-name="Group 421" transform="translate(143.476 0)">
          <path id="Path_647" data-name="Path 647" d="M1900.905,1140.644a3.46,3.46,0,1,1-3.46-3.46A3.46,3.46,0,0,1,1900.905,1140.644Z" transform="translate(-1893.985 -1137.184)" fill="#7c5438"/>
          <path id="Path_648" data-name="Path 648" d="M1901.694,1250.69a2.719,2.719,0,1,1-2.719-2.719A2.718,2.718,0,0,1,1901.694,1250.69Z" transform="translate(-1895.516 -1211.805)" fill="#7c5438"/>
          <g id="Group_420" data-name="Group 420" transform="translate(1.73 3.954)">
            <path id="Rectangle_40" data-name="Rectangle 40" d="M1.73,0h0A1.73,1.73,0,0,1,3.46,1.73V33.859a1.73,1.73,0,0,1-1.73,1.73h0A1.73,1.73,0,0,1,0,33.859V1.73A1.73,1.73,0,0,1,1.73,0Z" fill="#c6bc93"/>
            <g id="Group_406" data-name="Group 406" transform="translate(0.853 2.578)">
              <path id="Path_649" data-name="Path 649" d="M1902.353,1159.5a5.745,5.745,0,0,0,2.006-1.841.309.309,0,0,0-.533-.312,5.087,5.087,0,0,1-1.784,1.619c-.337.212-.026.747.312.534Z" transform="translate(-1901.897 -1157.195)" fill="#968f71"/>
            </g>
            <g id="Group_407" data-name="Group 407" transform="translate(0.861 5.221)">
              <path id="Path_650" data-name="Path 650" d="M1902.372,1167.339a6.273,6.273,0,0,0,1.759-1.593c.218-.335-.317-.644-.533-.312a5.5,5.5,0,0,1-1.537,1.372c-.322.228-.014.764.312.533Z" transform="translate(-1901.924 -1165.292)" fill="#968f71"/>
            </g>
            <g id="Group_408" data-name="Group 408" transform="translate(0.931 8.031)">
              <path id="Path_651" data-name="Path 651" d="M1902.6,1175.856a5.545,5.545,0,0,0,1.676-1.511c.236-.322-.3-.63-.533-.312a4.806,4.806,0,0,1-1.454,1.289.309.309,0,0,0,.312.533Z" transform="translate(-1902.136 -1173.899)" fill="#968f71"/>
            </g>
            <g id="Group_409" data-name="Group 409" transform="translate(0.852 10.404)">
              <path id="Path_652" data-name="Path 652" d="M1902.353,1183.306a5.088,5.088,0,0,0,1.841-1.676.309.309,0,0,0-.533-.312,4.441,4.441,0,0,1-1.619,1.454c-.337.211-.027.745.312.534Z" transform="translate(-1901.896 -1181.168)" fill="#968f71"/>
            </g>
            <g id="Group_410" data-name="Group 410" transform="translate(0.842 13.047)">
              <path id="Path_653" data-name="Path 653" d="M1902.331,1191.312a4.54,4.54,0,0,0,1.759-1.594c.216-.336-.319-.645-.533-.312a3.925,3.925,0,0,1-1.537,1.372c-.354.182-.042.716.312.533Z" transform="translate(-1901.863 -1189.263)" fill="#968f71"/>
            </g>
            <g id="Group_411" data-name="Group 411" transform="translate(0.939 15.776)">
              <path id="Path_654" data-name="Path 654" d="M1902.615,1199.5a6.151,6.151,0,0,0,1.594-1.429c.237-.321-.3-.628-.534-.312a5.311,5.311,0,0,1-1.372,1.207c-.329.22-.02.756.312.533Z" transform="translate(-1902.163 -1197.623)" fill="#968f71"/>
            </g>
            <g id="Group_412" data-name="Group 412" transform="translate(1.09 18.052)">
              <path id="Path_655" data-name="Path 655" d="M1903.154,1206.7c.525-.52,1.08-1.007,1.565-1.565.26-.3-.175-.738-.437-.437-.485.558-1.041,1.045-1.565,1.565a.309.309,0,0,0,.437.437Z" transform="translate(-1902.625 -1204.595)" fill="#968f71"/>
            </g>
            <g id="Group_413" data-name="Group 413" transform="translate(1.172 20.629)">
              <path id="Path_656" data-name="Path 656" d="M1903.343,1214.372a4.237,4.237,0,0,0,1.429-1.429c.224-.331-.311-.64-.533-.312a3.575,3.575,0,0,1-1.208,1.207c-.352.187-.04.72.312.534Z" transform="translate(-1902.877 -1212.491)" fill="#968f71"/>
            </g>
            <g id="Group_414" data-name="Group 414" transform="translate(1.249 23.074)">
              <path id="Path_657" data-name="Path 657" d="M1903.584,1221.886a4.48,4.48,0,0,0,1.463-1.366c.252-.3-.182-.744-.437-.437a4.139,4.139,0,0,1-1.338,1.27c-.362.166-.048.7.312.533Z" transform="translate(-1903.112 -1219.979)" fill="#968f71"/>
            </g>
            <g id="Group_415" data-name="Group 415" transform="translate(1.079 25.331)">
              <path id="Path_658" data-name="Path 658" d="M1903.13,1228.884a8.716,8.716,0,0,0,1.449-1.545c.234-.323-.3-.631-.533-.312a8.086,8.086,0,0,1-1.352,1.42c-.305.257.134.691.437.437Z" transform="translate(-1902.59 -1226.892)" fill="#968f71"/>
            </g>
            <g id="Group_416" data-name="Group 416" transform="translate(1.181 27.63)">
              <path id="Path_659" data-name="Path 659" d="M1903.123,1235.85c.82.211,1.386-.911,1.749-1.46.221-.333-.315-.642-.533-.312-.169.255-.33.517-.519.758-.1.124-.342.468-.533.419a.309.309,0,0,0-.164.6Z" transform="translate(-1902.903 -1233.937)" fill="#968f71"/>
            </g>
            <g id="Group_417" data-name="Group 417" transform="translate(1.337 30.582)">
              <path id="Path_660" data-name="Path 660" d="M1903.848,1244.793a5.914,5.914,0,0,0,1.3-1.284c.279-.285-.158-.722-.437-.437-.384.393-.678.923-1.174,1.187-.351.188-.039.721.312.533Z" transform="translate(-1903.382 -1242.979)" fill="#968f71"/>
            </g>
            <g id="Group_418" data-name="Group 418" transform="translate(1.423 33.22)">
              <path id="Path_661" data-name="Path 661" d="M1904.108,1252.461a2.793,2.793,0,0,0,1.1-.935.309.309,0,0,0-.111-.423.316.316,0,0,0-.423.111,2.18,2.18,0,0,1-.878.713.309.309,0,0,0-.111.423.317.317,0,0,0,.423.111Z" transform="translate(-1903.645 -1251.061)" fill="#968f71"/>
            </g>
            <g id="Group_419" data-name="Group 419" transform="translate(0.762 0.616)">
              <path id="Path_662" data-name="Path 662" d="M1902.147,1153.257a13.727,13.727,0,0,0,1.367-1.628c.234-.324-.3-.632-.534-.312a12.652,12.652,0,0,1-1.27,1.5.309.309,0,0,0,.437.437Z" transform="translate(-1901.62 -1151.183)" fill="#968f71"/>
            </g>
          </g>
        </g>
      </g>
      <path id="Path_663" data-name="Path 663" d="M1448.367,714.057a3.46,3.46,0,1,1-3.46-3.46A3.46,3.46,0,0,1,1448.367,714.057Z" transform="translate(-59.26 -57.624)" fill="#7c5438"/>
      <path id="Path_664" data-name="Path 664" d="M1877.751,711.275a3.46,3.46,0,1,1-3.46-3.46A3.46,3.46,0,0,1,1877.751,711.275Z" transform="translate(-348.474 -55.75)" fill="#7c5438"/>
      <g id="Group_449" data-name="Group 449" transform="translate(1377.395 626.372)">
        <g id="Group_423" data-name="Group 423" transform="translate(9.293 11.436)">
          <path id="Path_665" data-name="Path 665" d="M1459.287,682.761l-.01.02C1459.283,682.8,1459.285,682.784,1459.287,682.761Z" transform="translate(-1457.958 -676.683)" fill="#c6bc93"/>
          <path id="Path_666" data-name="Path 666" d="M1461.182,664.144c-.661.046-3.6,1.728-5.387,3.688-.5.544-.015,1.721-.558,2.187l1.336.121a.54.54,0,0,0-.007.079c.416-.933,1.773-1.732,2.5-2.394.759-.685,1.867-.743,3.162-1.8A1.184,1.184,0,0,0,1461.182,664.144Z" transform="translate(-1455.237 -664.142)" fill="#c6bc93"/>
        </g>
        <g id="Group_424" data-name="Group 424" transform="translate(0 15.262)">
          <path id="Path_667" data-name="Path 667" d="M1449.407,688.027l.016.015C1449.424,688.06,1449.417,688.048,1449.407,688.027Z" transform="translate(-1442.017 -684.056)" fill="#c6bc93"/>
          <path id="Path_668" data-name="Path 668" d="M1427.616,675.908c.631-.2,3.986.266,6.372,1.422.662.321.654,1.592,1.33,1.824l-1.2.609a.511.511,0,0,1,.036.071c-.733-.711-2.29-.949-3.215-1.291-.959-.354-2.009,0-3.6-.5A1.184,1.184,0,0,1,1427.616,675.908Z" transform="translate(-1426.769 -675.862)" fill="#c6bc93"/>
        </g>
        <g id="Group_439" data-name="Group 439" transform="translate(6.799 -5.954)">
          <path id="Path_669" data-name="Path 669" d="M1450.59,664.36a1.419,1.419,0,0,1-1.3,1.516l-.428-.005a1.431,1.431,0,0,1-1.27-1.548l.293-33.7a1.418,1.418,0,0,1,1.3-1.516l.428.005a1.431,1.431,0,0,1,1.271,1.548Z" transform="translate(-1447.595 -629.111)" fill="#c6bc93"/>
          <g id="Group_425" data-name="Group 425" transform="translate(1.003 2.246)">
            <path id="Path_670" data-name="Path 670" d="M1451.059,637.967a4.975,4.975,0,0,0,1.753-1.575.268.268,0,0,0-.459-.275,4.4,4.4,0,0,1-1.559,1.385c-.293.18-.03.646.265.465Z" transform="translate(-1450.667 -635.99)" fill="#968f71"/>
          </g>
          <g id="Group_426" data-name="Group 426" transform="translate(0.989 4.531)">
            <path id="Path_671" data-name="Path 671" d="M1451.009,644.752a5.432,5.432,0,0,0,1.537-1.364c.192-.288-.268-.56-.459-.274a4.743,4.743,0,0,1-1.343,1.174c-.281.2-.019.662.265.465Z" transform="translate(-1450.624 -642.992)" fill="#968f71"/>
          </g>
          <g id="Group_427" data-name="Group 427" transform="translate(1.024 8.389)">
            <path id="Path_672" data-name="Path 672" d="M1451.13,652.124a4.8,4.8,0,0,0,1.464-1.293c.207-.276-.255-.547-.459-.275a4.148,4.148,0,0,1-1.271,1.1.268.268,0,0,0,.265.465Z" transform="translate(-1450.733 -650.443)" fill="#968f71"/>
          </g>
          <g id="Group_428" data-name="Group 428" transform="translate(0.934 10.874)">
            <path id="Path_673" data-name="Path 673" d="M1450.848,658.573a4.409,4.409,0,0,0,1.609-1.434.268.268,0,0,0-.459-.275,3.846,3.846,0,0,1-1.415,1.245c-.294.179-.03.645.265.465Z" transform="translate(-1450.455 -656.737)" fill="#968f71"/>
          </g>
          <g id="Group_429" data-name="Group 429" transform="translate(0.902 13.625)">
            <path id="Path_674" data-name="Path 674" d="M1450.759,665.5a3.933,3.933,0,0,0,1.536-1.364c.19-.289-.27-.562-.459-.275a3.393,3.393,0,0,1-1.343,1.174c-.308.155-.043.619.265.465Z" transform="translate(-1450.357 -663.742)" fill="#968f71"/>
          </g>
          <g id="Group_430" data-name="Group 430" transform="translate(0.963 16.458)">
            <path id="Path_675" data-name="Path 675" d="M1450.934,672.586a5.334,5.334,0,0,0,1.392-1.222c.208-.276-.254-.547-.459-.275a4.593,4.593,0,0,1-1.2,1.032c-.287.188-.024.654.265.465Z" transform="translate(-1450.545 -670.976)" fill="#968f71"/>
          </g>
          <g id="Group_431" data-name="Group 431" transform="translate(1.071 18.858)">
            <path id="Path_676" data-name="Path 676" d="M1451.331,678.827c.458-.446.944-.863,1.369-1.341.228-.256-.145-.64-.374-.382-.425.479-.911.9-1.369,1.341a.268.268,0,0,0,.374.382Z" transform="translate(-1450.876 -677.019)" fill="#968f71"/>
          </g>
          <g id="Group_432" data-name="Group 432" transform="translate(1.122 21.517)">
            <path id="Path_677" data-name="Path 677" d="M1451.431,685.467a3.668,3.668,0,0,0,1.25-1.224c.2-.284-.264-.557-.459-.275a3.1,3.1,0,0,1-1.056,1.034c-.306.158-.041.623.265.465Z" transform="translate(-1451.03 -683.849)" fill="#968f71"/>
          </g>
          <g id="Group_433" data-name="Group 433" transform="translate(1.166 24.069)">
            <path id="Path_678" data-name="Path 678" d="M1451.572,691.976a3.882,3.882,0,0,0,1.279-1.17c.221-.261-.151-.646-.374-.382a3.576,3.576,0,0,1-1.17,1.087c-.314.141-.047.6.265.465Z" transform="translate(-1451.166 -690.335)" fill="#968f71"/>
          </g>
          <g id="Group_434" data-name="Group 434" transform="translate(0.997 26.438)">
            <path id="Path_679" data-name="Path 679" d="M1451.114,698.029a7.552,7.552,0,0,0,1.268-1.325c.206-.277-.256-.549-.459-.275a7,7,0,0,1-1.183,1.218c-.267.219.11.6.374.382Z" transform="translate(-1450.648 -696.315)" fill="#968f71"/>
          </g>
          <g id="Group_435" data-name="Group 435" transform="translate(1.066 28.819)">
            <path id="Path_680" data-name="Path 680" d="M1451.047,704.058c.708.19,1.208-.776,1.527-1.248.194-.286-.267-.559-.459-.275-.148.219-.29.445-.456.651-.086.107-.3.4-.465.357a.268.268,0,0,0-.147.514Z" transform="translate(-1450.859 -702.415)" fill="#968f71"/>
          </g>
          <g id="Group_436" data-name="Group 436" transform="translate(1.176 32.439)">
            <path id="Path_681" data-name="Path 681" d="M1451.6,711.8a5.129,5.129,0,0,0,1.135-1.1c.244-.244-.13-.627-.374-.382-.336.337-.594.792-1.026,1.017-.306.16-.041.624.265.465Z" transform="translate(-1451.196 -710.242)" fill="#968f71"/>
          </g>
          <g id="Group_437" data-name="Group 437" transform="translate(1.23 34.722)">
            <path id="Path_682" data-name="Path 682" d="M1451.76,718.438a2.42,2.42,0,0,0,.96-.8.268.268,0,0,0-.092-.367.274.274,0,0,0-.367.092,1.887,1.887,0,0,1-.766.609.268.268,0,0,0-.1.365.274.274,0,0,0,.365.1Z" transform="translate(-1451.362 -717.234)" fill="#968f71"/>
          </g>
          <g id="Group_438" data-name="Group 438" transform="translate(0.944 0.541)">
            <path id="Path_683" data-name="Path 683" d="M1450.94,632.553a11.827,11.827,0,0,0,1.2-1.4c.205-.278-.256-.549-.459-.275a11.019,11.019,0,0,1-1.113,1.289.267.267,0,0,0,.374.382Z" transform="translate(-1450.486 -630.767)" fill="#968f71"/>
          </g>
        </g>
        <path id="Path_684" data-name="Path 684" d="M1447.993,680.588a3.223,3.223,0,0,0-2.035.288,3.352,3.352,0,0,0-.806.5,3.563,3.563,0,0,0-.487.463l-.322.05a2.3,2.3,0,0,0-2.046,1.263,1.917,1.917,0,0,0,1.153,2.165,5.5,5.5,0,0,0,2.731-.211,3.145,3.145,0,0,0,2.274-1.462C1449.051,682.7,1449.411,680.946,1447.993,680.588Z" transform="translate(-1437.198 -663.74)" fill="#c6bc93"/>
        <path id="Path_685" data-name="Path 685" d="M1449.2,682.286a7.134,7.134,0,0,0-1.454,1.235,9.867,9.867,0,0,1-3.3,1.691,6.57,6.57,0,0,1-1.588.3,1.881,1.881,0,0,0,1,.936,5.5,5.5,0,0,0,2.731-.211,3.145,3.145,0,0,0,2.273-1.462A2.678,2.678,0,0,0,1449.2,682.286Z" transform="translate(-1437.612 -664.927)" fill="#968f71" opacity="0.5"/>
        <g id="Group_440" data-name="Group 440" transform="translate(10.09 14.56)">
          <path id="Path_686" data-name="Path 686" d="M1458.187,675.919a6.075,6.075,0,0,0,.849-1.874.268.268,0,0,0-.515-.148,5.615,5.615,0,0,1-.793,1.746c-.2.279.257.55.459.275Z" transform="translate(-1457.677 -673.711)" fill="#968f71"/>
        </g>
        <g id="Group_441" data-name="Group 441" transform="translate(11.769 13.704)">
          <path id="Path_687" data-name="Path 687" d="M1463.321,673.048a13.182,13.182,0,0,0,.711-1.544c.14-.311-.318-.589-.459-.275a13.108,13.108,0,0,1-.712,1.544.268.268,0,0,0,.459.275Z" transform="translate(-1462.82 -671.092)" fill="#968f71"/>
        </g>
        <g id="Group_442" data-name="Group 442" transform="translate(13.606 12.45)">
          <path id="Path_688" data-name="Path 688" d="M1468.943,669.2a6.006,6.006,0,0,0,.632-1.608c.075-.336-.438-.484-.514-.148a5.493,5.493,0,0,1-.576,1.481c-.168.3.291.576.459.275Z" transform="translate(-1468.447 -667.25)" fill="#968f71"/>
        </g>
        <g id="Group_443" data-name="Group 443" transform="translate(15.014 12.184)">
          <path id="Path_689" data-name="Path 689" d="M1473.246,668.019c.17-.389.324-.783.494-1.172.137-.312-.321-.59-.459-.275-.17.388-.324.783-.494,1.172-.136.312.321.59.459.275Z" transform="translate(-1472.762 -666.434)" fill="#968f71"/>
        </g>
        <g id="Group_444" data-name="Group 444" transform="translate(0.219 15.834)">
          <path id="Path_690" data-name="Path 690" d="M1428.4,679.037a3.561,3.561,0,0,1-.442-1.224c-.047-.341-.563-.2-.517.137a3.985,3.985,0,0,0,.494,1.353.268.268,0,0,0,.465-.265Z" transform="translate(-1427.438 -677.617)" fill="#968f71"/>
        </g>
        <g id="Group_445" data-name="Group 445" transform="translate(1.392 16.007)">
          <path id="Path_691" data-name="Path 691" d="M1432,679.353a2.649,2.649,0,0,1-.444-1.011c-.054-.34-.571-.2-.517.137a3.021,3.021,0,0,0,.5,1.139c.186.289.652.025.465-.265Z" transform="translate(-1431.034 -678.146)" fill="#968f71"/>
        </g>
        <g id="Group_446" data-name="Group 446" transform="translate(2.617 15.922)">
          <path id="Path_692" data-name="Path 692" d="M1436.194,679.354a2.05,2.05,0,0,1-.872-1.21c-.036-.339-.571-.348-.535-.006a2.478,2.478,0,0,0,1.025,1.591c.257.228.641-.145.382-.374Z" transform="translate(-1434.786 -677.885)" fill="#968f71"/>
        </g>
        <g id="Group_447" data-name="Group 447" transform="translate(4.854 16.691)">
          <path id="Path_693" data-name="Path 693" d="M1442.486,681.682a4.783,4.783,0,0,0-.317-1.251.268.268,0,0,0-.517.137,4.365,4.365,0,0,1,.3,1.109c.007.344.542.351.535.005Z" transform="translate(-1441.639 -680.241)" fill="#968f71"/>
        </g>
        <g id="Group_448" data-name="Group 448" transform="translate(6.027 16.866)">
          <path id="Path_694" data-name="Path 694" d="M1446.074,681.984c-.108-.339-.2-.681-.31-1.02s-.622-.193-.517.136.2.681.31,1.02.622.193.517-.137Z" transform="translate(-1445.232 -680.777)" fill="#968f71"/>
        </g>
      </g>
      <g id="Group_470" data-name="Group 470" transform="translate(1521.985 625.045)">
        <g id="Group_450" data-name="Group 450" transform="translate(4.156 11.213)">
          <path id="Path_695" data-name="Path 695" d="M1886.493,678.473l-.01.02C1886.491,678.51,1886.493,678.5,1886.493,678.473Z" transform="translate(-1885.158 -672.244)" fill="#c6bc93"/>
          <path id="Path_696" data-name="Path 696" d="M1888.173,659.4c-.659.067-3.543,1.845-5.263,3.863-.477.56.041,1.721-.486,2.2l1.339.077a.529.529,0,0,0,0,.079c.385-.946,1.715-1.79,2.425-2.474.735-.709,1.842-.8,3.1-1.9A1.183,1.183,0,0,0,1888.173,659.4Z" transform="translate(-1882.424 -659.392)" fill="#c6bc93"/>
        </g>
        <g id="Group_465" data-name="Group 465" transform="translate(1.429)">
          <path id="Path_697" data-name="Path 697" d="M1877.7,654.534a1.284,1.284,0,0,1-1.255,1.312l-.428.01a1.284,1.284,0,0,1-1.312-1.255l-.633-28.234a1.283,1.283,0,0,1,1.255-1.312l.428-.01a1.284,1.284,0,0,1,1.312,1.255Z" transform="translate(-1874.07 -625.045)" fill="#c6bc93"/>
          <g id="Group_451" data-name="Group 451" transform="translate(0.799 2.211)">
            <path id="Path_698" data-name="Path 698" d="M1876.917,633.844a4.969,4.969,0,0,0,1.7-1.632.267.267,0,0,0-.467-.259,4.412,4.412,0,0,1-1.513,1.436c-.287.19-.009.647.28.456Z" transform="translate(-1876.516 -631.819)" fill="#968f71"/>
          </g>
          <g id="Group_452" data-name="Group 452" transform="translate(0.853 4.503)">
            <path id="Path_699" data-name="Path 699" d="M1877.076,640.642a5.427,5.427,0,0,0,1.491-1.414c.183-.294-.287-.551-.468-.259a4.754,4.754,0,0,1-1.3,1.217c-.274.2,0,.662.28.456Z" transform="translate(-1876.683 -638.84)" fill="#968f71"/>
          </g>
          <g id="Group_453" data-name="Group 453" transform="translate(0.965 6.935)">
            <path id="Path_700" data-name="Path 700" d="M1877.432,648.01a4.8,4.8,0,0,0,1.421-1.34c.2-.283-.272-.539-.468-.26a4.16,4.16,0,0,1-1.234,1.145.268.268,0,0,0,.281.455Z" transform="translate(-1877.027 -646.289)" fill="#968f71"/>
          </g>
          <g id="Group_454" data-name="Group 454" transform="translate(0.947 8.987)">
            <path id="Path_701" data-name="Path 701" d="M1877.372,654.456a4.4,4.4,0,0,0,1.561-1.486.267.267,0,0,0-.467-.26,3.848,3.848,0,0,1-1.373,1.29c-.287.189-.009.646.28.456Z" transform="translate(-1876.972 -652.576)" fill="#968f71"/>
          </g>
          <g id="Group_455" data-name="Group 455" transform="translate(0.987 11.276)">
            <path id="Path_702" data-name="Path 702" d="M1877.5,661.388a3.93,3.93,0,0,0,1.491-1.413c.181-.3-.288-.553-.468-.26a3.394,3.394,0,0,1-1.3,1.217c-.3.165-.022.62.281.455Z" transform="translate(-1877.094 -659.586)" fill="#968f71"/>
          </g>
          <g id="Group_456" data-name="Group 456" transform="translate(1.122 13.639)">
            <path id="Path_703" data-name="Path 703" d="M1877.9,668.473a5.332,5.332,0,0,0,1.352-1.268c.2-.283-.272-.538-.468-.26a4.612,4.612,0,0,1-1.164,1.072c-.281.2,0,.654.28.455Z" transform="translate(-1877.506 -666.825)" fill="#968f71"/>
          </g>
          <g id="Group_457" data-name="Group 457" transform="translate(1.302 15.604)">
            <path id="Path_704" data-name="Path 704" d="M1878.52,674.692c.443-.461.915-.893,1.324-1.385.219-.264-.166-.635-.387-.37-.409.492-.881.925-1.324,1.385a.268.268,0,0,0,.387.37Z" transform="translate(-1878.058 -672.846)" fill="#968f71"/>
          </g>
          <g id="Group_458" data-name="Group 458" transform="translate(1.417 17.838)">
            <path id="Path_705" data-name="Path 705" d="M1878.821,681.339a3.665,3.665,0,0,0,1.209-1.265c.187-.291-.282-.547-.468-.26a3.1,3.1,0,0,1-1.021,1.068c-.3.168-.021.624.28.456Z" transform="translate(-1878.412 -679.689)" fill="#968f71"/>
          </g>
          <g id="Group_459" data-name="Group 459" transform="translate(1.532 19.951)">
            <path id="Path_706" data-name="Path 706" d="M1879.176,687.835a3.876,3.876,0,0,0,1.24-1.211c.212-.268-.172-.641-.386-.37a3.585,3.585,0,0,1-1.134,1.125c-.31.151-.027.606.28.456Z" transform="translate(-1878.762 -686.16)" fill="#968f71"/>
          </g>
          <g id="Group_460" data-name="Group 460" transform="translate(1.431 21.907)">
            <path id="Path_707" data-name="Path 707" d="M1878.925,693.9a7.519,7.519,0,0,0,1.224-1.366c.2-.284-.273-.54-.467-.26a6.994,6.994,0,0,1-1.143,1.255c-.259.229.13.6.386.37Z" transform="translate(-1878.453 -692.152)" fill="#968f71"/>
          </g>
          <g id="Group_461" data-name="Group 461" transform="translate(1.561 23.896)">
            <path id="Path_708" data-name="Path 708" d="M1879.049,699.929c.714.167,1.182-.816,1.486-1.3.184-.293-.285-.55-.468-.26-.141.224-.275.454-.435.666-.082.109-.287.411-.453.372a.268.268,0,0,0-.131.519Z" transform="translate(-1878.853 -698.245)" fill="#968f71"/>
          </g>
          <g id="Group_462" data-name="Group 462" transform="translate(1.752 26.45)">
            <path id="Path_709" data-name="Path 709" d="M1879.846,707.661a5.117,5.117,0,0,0,1.1-1.136c.235-.252-.151-.622-.387-.37a4.76,4.76,0,0,1-.992,1.051c-.3.169-.02.625.28.455Z" transform="translate(-1879.438 -706.07)" fill="#968f71"/>
          </g>
          <g id="Group_463" data-name="Group 463" transform="translate(1.87 28.736)">
            <path id="Path_710" data-name="Path 710" d="M1880.2,714.3a2.414,2.414,0,0,0,.933-.83.268.268,0,0,0-.1-.364.273.273,0,0,0-.364.1,1.892,1.892,0,0,1-.746.634.267.267,0,0,0-.088.368.274.274,0,0,0,.368.087Z" transform="translate(-1879.799 -713.073)" fill="#968f71"/>
          </g>
          <g id="Group_464" data-name="Group 464" transform="translate(0.679 0.525)">
            <path id="Path_711" data-name="Path 711" d="M1876.61,628.471a11.849,11.849,0,0,0,1.151-1.435c.2-.285-.274-.541-.468-.26a11.01,11.01,0,0,1-1.07,1.325.268.268,0,0,0,.387.37Z" transform="translate(-1876.149 -626.654)" fill="#968f71"/>
          </g>
        </g>
        <path id="Path_712" data-name="Path 712" d="M1875.336,676.317a3.225,3.225,0,0,0-2.025.354,3.364,3.364,0,0,0-.79.525,3.525,3.525,0,0,0-.472.479l-.32.061a2.3,2.3,0,0,0-2,1.329,1.917,1.917,0,0,0,1.223,2.126,5.5,5.5,0,0,0,2.723-.3,3.145,3.145,0,0,0,2.224-1.536C1876.462,678.395,1876.764,676.629,1875.336,676.317Z" transform="translate(-1869.694 -659.547)" fill="#c6bc93"/>
        <path id="Path_713" data-name="Path 713" d="M1876.618,677.9c-.543.245-1.049.968-1.413,1.281a9.868,9.868,0,0,1-3.238,1.8,6.572,6.572,0,0,1-1.578.354,1.883,1.883,0,0,0,1.028.9,5.5,5.5,0,0,0,2.723-.3,3.145,3.145,0,0,0,2.224-1.536A2.68,2.68,0,0,0,1876.618,677.9Z" transform="translate(-1870.163 -660.646)" fill="#968f71" opacity="0.5"/>
        <g id="Group_466" data-name="Group 466" transform="translate(4.929 14.47)">
          <path id="Path_714" data-name="Path 714" d="M1885.308,671.6a6.073,6.073,0,0,0,.787-1.9.268.268,0,0,0-.519-.131,5.615,5.615,0,0,1-.736,1.772c-.195.286.275.542.468.26Z" transform="translate(-1884.794 -669.371)" fill="#968f71"/>
        </g>
        <g id="Group_467" data-name="Group 467" transform="translate(6.571 13.565)">
          <path id="Path_715" data-name="Path 715" d="M1890.329,668.569a13.218,13.218,0,0,0,.66-1.566c.129-.316-.337-.578-.468-.259a13.179,13.179,0,0,1-.66,1.566.268.268,0,0,0,.468.26Z" transform="translate(-1889.824 -666.599)" fill="#968f71"/>
        </g>
        <g id="Group_468" data-name="Group 468" transform="translate(8.365 12.254)">
          <path id="Path_716" data-name="Path 716" d="M1895.82,664.541a6.024,6.024,0,0,0,.579-1.629c.064-.338-.455-.469-.519-.131a5.478,5.478,0,0,1-.528,1.5c-.158.307.31.566.468.26Z" transform="translate(-1895.32 -662.584)" fill="#968f71"/>
        </g>
        <g id="Group_469" data-name="Group 469" transform="translate(9.752 11.947)">
          <path id="Path_717" data-name="Path 717" d="M1900.057,663.233c.157-.394.3-.794.455-1.187.126-.317-.341-.579-.468-.26-.157.394-.3.794-.455,1.187-.126.316.34.579.468.26Z" transform="translate(-1899.567 -661.641)" fill="#968f71"/>
        </g>
      </g>
    </g>
    <g transform="matrix(1, 0, 0, 1, 1377.47, 449.42)" filter="url(#Wishes)">
      <text id="Wishes-2" data-name="Wishes" transform="translate(105.53 66.58)" fill="#04345d" font-size="35" font-family="Frosty" opacity="0.867"><tspan x="-46.305" y="0">Wishes</tspan></text>
    </g>
    <g transform="matrix(1, 0, 0, 1, 1377.47, 449.42)" filter="url(#Memes)">
      <text id="Memes-2" data-name="Memes" transform="translate(105.53 152.58)" fill="#04345d" font-size="41" font-family="Frosty" opacity="0.867"><tspan x="-56.231" y="0">Memes</tspan></text>
    </g>
    <g transform="matrix(1, 0, 0, 1, 1377.47, 449.42)" filter="url(#Special_Zone)">
      <text id="Special_Zone-2" data-name="Special Zone" transform="translate(105.53 233.58)" fill="#04345d" font-size="28" font-family="Frosty" opacity="0.867"><tspan x="-69.636" y="0">Special Zone</tspan></text>
    </g>
  </g>
</svg>
